<?xml version="1.0" encoding="UTF-8"?>
<!DOCTYPE svg PUBLIC "-//W3C//DTD SVG 1.1//EN" "http://www.w3.org/Graphics/SVG/1.1/DTD/svg11.dtd">
<!-- Creator: CorelDRAW -->
<svg xmlns="http://www.w3.org/2000/svg" xml:space="preserve" width="198.287mm" height="126.726mm" version="1.1" style="shape-rendering:geometricPrecision; text-rendering:geometricPrecision; image-rendering:optimizeQuality; fill-rule:evenodd; clip-rule:evenodd"
viewBox="0 0 18812.68 12023.21"
 xmlns:xlink="http://www.w3.org/1999/xlink"
 xmlns:xodm="http://www.corel.com/coreldraw/odm/2003">
 <defs>
  <style type="text/css">
   <![CDATA[
    .fil11 {fill:#0C046A}
    .fil26 {fill:#0F0572}
    .fil39 {fill:#0F0671}
    .fil29 {fill:#160C85}
    .fil3 {fill:#180E8B}
    .fil41 {fill:#2B28A3}
    .fil13 {fill:#4345E8}
    .fil37 {fill:#4447EC}
    .fil0 {fill:#464AEE}
    .fil36 {fill:#5052FE}
    .fil35 {fill:#7389DA}
    .fil10 {fill:#7D98F3}
    .fil2 {fill:#90B2F9}
    .fil22 {fill:#91B2FA}
    .fil5 {fill:#92B5FA}
    .fil24 {fill:#93B4FB}
    .fil17 {fill:#B9CEFB}
    .fil12 {fill:#BCD1FC}
    .fil32 {fill:#BDD0FA}
    .fil1 {fill:#BECFFD}
    .fil9 {fill:#D8E3FE}
    .fil27 {fill:#DCE4FE}
    .fil7 {fill:#DDE6FD}
    .fil23 {fill:#E0473D}
    .fil4 {fill:#E0E6FD}
    .fil16 {fill:#E34D44}
    .fil30 {fill:#E3EAFD}
    .fil8 {fill:#E7EDFD}
    .fil28 {fill:#E8EEFB}
    .fil43 {fill:#F1D462}
    .fil19 {fill:#F3CC4C}
    .fil25 {fill:#F3CD4E}
    .fil21 {fill:#F5CC4D}
    .fil34 {fill:#F7908E}
    .fil6 {fill:#F7B05E}
    .fil18 {fill:#F8B05C}
    .fil20 {fill:#FE7062}
    .fil40 {fill:#FE7366}
    .fil15 {fill:#FE786C}
    .fil42 {fill:#FE7D73}
    .fil14 {fill:#FE847B}
    .fil38 {fill:#FEFEFE}
    .fil33 {fill:#FFE4E2}
    .fil31 {fill:#FFE5E4}
   ]]>
  </style>
 </defs>
 <g id="Capa_x0020_1">
  <metadata id="CorelCorpID_0Corel-Layer"/>
  <g id="_1799921589312">
   <path class="fil0" d="M8867.66 6110.35c8.17,4.06 105.52,14.92 130.08,21.64 81.24,22.22 310.37,80.77 221.45,183.87 -75.01,86.97 -251.99,184.53 -365.97,233.35 33.57,103.7 50.23,180.25 14.93,292.13 -31.58,100.11 -79.43,154.68 -130.18,211.59 64.93,17.16 154.89,61.85 201.85,95.53 18.36,13.17 70.38,53.04 56.87,91.44 -8.01,22.76 -69.63,40.6 -93.06,54.56l17.11 16.5c108.22,98.53 -13.21,271.68 -46.47,352.71 61.81,0.15 121.6,15.09 166.08,43.65 20.64,13.26 43.57,29.66 58.26,44.17 9.07,8.96 37.49,43.34 43.49,58.85 62.82,82.35 49.27,240.14 18.64,343.5 -39.38,132.89 -107.35,225.53 -205.57,310.55 -17.59,15.23 -38.6,30.45 -59.19,43.24 -44.6,27.74 -83.12,48.85 -137.43,67.3 -113.57,38.59 -237.73,38.15 -363.32,45.96 -520.52,32.38 -1042.27,58.61 -1568.15,75.59 -532.86,17.21 -1078.75,28.79 -1613.71,10.38 -131.31,-4.52 -261.17,-10.59 -391.77,-21.39 -141.18,-11.69 -211.36,-26.16 -315.73,-93.13 -73.6,-47.24 -147.9,-127.91 -189.9,-219.66 -22.29,-48.71 -38,-100.92 -45.11,-159.29 -5.27,-43.17 -7.38,-151.94 18.68,-179.82 -0.14,-35.8 44.38,-102.86 63.65,-128.33 24.01,-31.76 64.02,-72.48 99.88,-93.41l-35.53 -28.24c-72.54,-55.97 -123.49,-168.44 -149.89,-255.72 -24.77,-81.84 -17.46,-126.54 32.2,-175.81 48.1,-47.72 119.2,-33.67 192.71,-42.66 -43.85,-10.93 -143.03,-25.2 -171.29,-50.6 -2.16,-41.14 17.54,-37.23 54.12,-48.41l237.16 -70.56c-7.96,-11.18 -3.09,-4.62 -13.37,-13.26l-36.6 -36.85c-14.55,-18.79 -27.54,-36.24 -41.36,-57.01 -105.92,-159.23 -124.21,-268.44 -129.7,-459.4l-134.36 -79.36c-115.22,-75.56 -290.34,-171.55 -101.61,-257.04 13.45,-6.09 24.07,-10.53 37.59,-15.6l26.6 -10.47c7.63,-4.29 3.28,-1.39 7.57,-5.66 -17.05,-90.44 -13.33,-189.7 -0.66,-280.66 33.26,-313.55 216.15,-665.31 388.49,-890.93 18.61,-24.37 36.7,-47.58 56.33,-70.68l218.04 -228.27c11.28,-11.46 20.9,-16.55 33.11,-28.38 10.62,-10.28 22.25,-19.5 35.33,-30.18 206.88,-169.14 435.15,-300.72 693.43,-387.98 271.6,-91.76 567.36,-142.44 876.74,-142.07 336.51,0.4 608.02,20.71 920.15,99.09 430,107.99 825.09,342.56 1087.88,697.79 206.26,278.84 303.03,556.23 363.88,903.99 5.64,48.95 16.1,96.64 9.38,147.85 -3.08,23.47 -7.99,41.94 -16.58,64.42 -7.36,19.24 -19.32,34.56 -25.16,51.14zm-5380.4 1652.27c-7.29,56.06 -15.21,834.41 -15.11,896.31 0.66,412.65 -12.44,932.51 8.03,1339.65 12.86,255.61 199.51,440.02 455.3,453.95l428.19 24.5c18.33,-13.12 74.53,-89.05 89.99,-108.11 107.25,-132.26 107.45,-109.52 19.24,-179.01 -28.21,-22.23 -84.09,-55.25 -43.5,-78.59l254.25 -93.84c90.85,-34.08 182.2,-69.13 273.7,-101.14 -10.47,-74.34 -5.06,-171.72 -5.06,-249.82 -0.01,-80.83 -6.9,-156.7 20.36,-228.46 41.84,-110.19 146.04,-201.04 298.04,-200.67 334.49,0.8 669.11,0.21 1003.6,0.05l1503.24 0c148.08,0.04 276.16,-18.07 384.35,114.34 100.82,123.43 66,240 41.76,405.06 -26.31,179.18 -28.02,262.02 -146.07,353.62 -108,83.81 -282.64,60.85 -439.8,60.9l-2002.94 -0.01c-72.82,0 -314.57,3.54 -376.8,-1.35 -42.49,-3.35 -65.41,-16.43 -99.01,-23.24l-50.77 366.72c49.68,-5.14 131.01,3.6 182.47,5.4 421.19,14.75 854.31,36.42 1273.8,40.3 495.08,4.57 994.16,17.93 1491.05,3.57 242.87,-7.03 480.9,-14.76 720.98,-29.22 227.52,-13.7 384.49,-22.87 536.49,-211.63 138.46,-171.93 116.33,-390.82 128.45,-620.57 6.34,-120.06 12.3,-238.37 18.59,-358.45 6.19,-118.28 9.09,-241.5 18.58,-360.41 13.59,-20.03 21.71,0.26 22.77,-40.94 -3.13,-2.02 -6.38,-3.54 -10.94,-6.23 -11.01,-6.48 -1.2,1.39 -9.75,-6.07 7.21,-87.77 9.84,-181.38 13.47,-269.75 11.05,-269.22 29.42,-545.29 38.38,-813.03 6.07,-181.67 19.35,-364.53 24.49,-546.49 5.1,-180.57 13.64,-365.24 22.5,-545.71 17.95,-365.36 24.36,-732.32 40.44,-1097.72 11.93,-270.77 16.35,-554.66 24.4,-827.39 2.75,-93.26 7.05,-189.39 6.92,-282.64 -206.88,19.61 -361.81,25.22 -564.36,-15.65 -173.46,-35.01 -306.2,-88.76 -446.94,-159.31 -109.71,-55 -182.78,-113.73 -272.1,-182.39l-81.54 -70.13c-42.94,-41.26 -109.08,-110.04 -145.81,-157.22 -23.11,-29.69 -43.87,-54.17 -65.82,-85.78l-61.54 -88.71c-69.24,-6.55 -153.18,-4.35 -223.91,-6.13 -511.72,-12.82 -1034.93,-28.79 -1544.19,-37.16 -293.87,-4.82 -590.65,-12.32 -884.73,-20.85 -106.14,-3.08 -568.95,-6.89 -653.39,-21.97 -168.46,-30.08 -250.48,-128.54 -113.2,-203.9 126.31,-69.33 469.64,-47.88 627.33,-47.88 596.29,0 1182.52,10.88 1777.53,26.02 98.27,2.5 852.12,31.17 873.41,23.71 -11,-39.85 -27.87,-79.21 -40.02,-121.93 -11.57,-40.68 -19.24,-83.52 -31.18,-123.45 -561.83,-16.93 -1125.35,-29.01 -1686.82,-41.05 -281.99,-6.05 -564.18,-10.69 -847.14,-19.66 -137.05,-4.35 -280.52,-7.91 -418.53,-10.1 -71.71,-1.14 -130.73,-3.28 -195.2,-22.17 -223.34,-65.44 -142.09,-231.24 154.2,-236.53 398.92,-7.13 887.49,-8.3 1277.99,3.53 281.74,8.53 566.01,11.69 847.87,17.66l626.61 18.27c68.26,1.93 141.87,7.73 208.6,5.99 -9.45,-117.04 10.87,-284.85 34.71,-395.46 25.9,-120.19 60.91,-220.5 105.32,-324.99 -24.91,2.65 -257.58,-17.45 -303.51,-21.1 -99.3,-7.91 -199.01,-14.66 -298.82,-21.69 -614.5,-43.26 -1200.4,-76.82 -1818.88,-102.02 -409.28,-16.67 -843.11,-28.19 -1253.3,-10.95 -102.15,4.29 -189.32,2.17 -278.2,40.64 -38.32,16.58 -74.06,37.78 -100.76,59.07 -197,157.16 -174.63,344.27 -186.35,612.42 -44.72,1023.44 -86.78,2068.6 -114.39,3092.42 -5.56,206.08 -8.61,415.5 -18.59,621.14 -5.76,118.83 -36.63,1221.38 -28.44,1243.44z"/>
   <path class="fil1" d="M16768.9 1695.06c-8.25,17.29 -73.41,97 -89.69,116.47 -100.52,120.12 -220.72,280.18 -322.5,394.25l-283.8 330.57c-8.14,10.14 -15.13,15.53 -23.55,25.6l-241.81 270.3c-8.68,9.35 -15.94,14.76 -24.53,24.5 -9.36,10.62 -15.34,18.5 -24.75,28.68 -95.42,103.16 -222.32,237.01 -323.19,336.15 -34.93,34.34 -64.78,70.77 -101.53,103.23 -76.44,67.57 -175.9,175.91 -258.5,249.45l-186.91 173.38c-9.57,8.83 -17.72,13.63 -26.96,22.39 -18.88,17.9 -31.32,29.41 -51.15,47.01 -305.04,270.44 -580.54,482.84 -919.03,711.15 -87.81,59.22 -459.7,285.92 -519.27,296.92 -12.13,12.26 -92.13,49.73 -114.77,60.38 -127.34,59.86 -439.51,238.55 -559.86,312.57 -72.68,44.71 -143.61,88.87 -214.89,133.28 -148.95,92.8 -277.07,185.28 -418.43,281.94 -67.62,46.24 -135.61,97.15 -201.51,146.67l-197.73 150.16c7,-32.86 27,-78.35 38.98,-112.3 161.91,-459.04 337.89,-1044.65 455.37,-1514.78l45.09 -180.08c7.5,-33.11 3.09,-31.93 26.73,-48.12l-4.92 -32.57c-13.83,-5.19 7.76,-3.73 -16.71,-3.25 -22.23,0.44 -3.94,-1.35 -14.27,3.91 -1.05,0.53 -17.75,13.69 -18.94,14.72 -44.54,38.24 -20.93,43.97 -17.36,59.81 2.63,11.62 -31.07,131.99 -34.85,146.37 -139.17,529.52 -304.37,1088.69 -491.66,1601.37 -57.13,156.38 -22.46,111.59 -179.82,237.91 -73.37,58.89 -157.14,137.68 -225.37,192.45l-108.28 98.04c6.97,-47.68 29.83,-61.55 -27.31,-61.65 -4.81,11.04 -10.59,32.91 -15.11,48.18 -6.02,20.27 -6.77,27 5.72,41.08l2.4 2.12c-11.59,14.43 -27.22,23.51 -40.27,37.48l-116.01 109.29c-88.83,84.19 -220.09,214.52 -303.04,303.18 -79.9,85.39 -290.43,310.59 -358.62,399.01 -21.83,28.32 -45.41,55.57 -68.67,83.08 -46.91,55.46 -90.95,111.61 -134.52,168.51 -34.91,45.61 -53.97,56.6 -53.41,93.88l-0.16 131.66c-3.23,16.51 -0.84,7.93 -6.44,16.1l-16.23 1918.53c7.65,27.33 2.51,70.66 2.51,100.83 -0.12,-6.02 -6.15,2.76 3.63,-5.83 6.89,-6.03 4.55,-3.27 9.56,-6.21l540.51 -360.68c14.46,-10.05 30.73,-21.04 43.16,-30.45l250.45 -183.73c13.99,-10.5 24.98,-18.96 39.11,-30.32l285.68 -222.46c12.43,-9.66 24.09,-20.46 37.95,-31.48l159.24 -131.3c13.62,-12.06 27.25,-20.69 40.88,-32.91 64.33,-57.67 174.5,-145.38 233.56,-200.63 49.05,-45.88 148.8,-127.53 188.25,-167.84l448.4 -419.97c13.94,-13.85 24.35,-19.93 39,-34.73l200.47 -200.84c17.85,-18.73 14.4,-13.24 25.05,-15.02 -68.22,-180.98 -96.19,-367.88 -9.84,-551.56 62.87,-133.73 154.51,-233.59 269.14,-316.49 149.28,-107.96 317.26,-183.68 518.54,-235.01 229.9,-58.61 372.61,-41.41 605.63,-16.43 12.26,-12.33 112.57,-213.02 124.52,-241.78 -69.45,-0.78 -102.67,-12.53 -157.23,-37.98 -112.84,-52.63 -37.71,-94.16 -32.57,-110.37 -6.5,-12.21 -41.19,-36.99 -55.42,-55.69 -48.65,-63.9 -112.98,-173.94 -27.8,-231.72 -3.65,-11.43 -16.07,-19.72 -23.42,-28.3 -9.62,-11.23 -16.39,-20.51 -26.98,-30.46 -7.73,-7.27 -49.97,-52.77 -53.07,-58.85 -42.08,7.9 -167.38,97.02 -233.49,17.79 -57.13,-68.46 -10.14,-210.91 -7.62,-268.2 2.67,-60.55 -29.96,-159.11 95.26,-209.07 54.76,-21.85 146.69,-19.22 197.51,-117.89 21.08,-40.94 33.91,-70.3 61.28,-94.31 99.73,-87.46 360.44,-171.66 432.77,-12.07 17.76,39.19 15.75,82.03 34.99,120.75 21.48,43.2 85.56,77.14 -37.91,165.44 -12.56,8.98 -16.06,9 -21.46,24.34 8.48,10.83 33.33,76.55 40.97,94.79 8.84,21.16 31.4,87.88 44.35,97.83 51.71,-12.5 100.97,-42.29 130.25,-80.27 24.99,-32.44 16.98,-2.05 44.42,2.08l13.55 -24.22c62.24,2.55 117.24,103.86 115.26,184.32 -2.57,104.71 -68.17,133.63 -129.7,171.34l61.73 175.61c21.64,69.05 35.19,122.52 40.93,201.32 4.91,67.54 21.07,153.97 -21.42,200.96 -18,19.9 -44.68,33.34 -76.31,41.6 -41.03,10.74 -75.75,5.98 -111.68,13.71l-26.2 178.98c51.93,6.02 438.54,133.92 471.1,164.77l48.99 45.14c96.05,73.78 90.21,77.83 214.25,150.31 74.6,43.6 171.31,78.57 269.89,95.24 10.28,-29.91 52.02,-93.06 69.66,-125 23.6,-42.72 47.59,-81.95 70.68,-125.92 20.87,-39.76 44.82,-84.83 67.35,-125.24 12.58,-22.56 57.14,-115.28 71.64,-127.77l368.62 -0.04 0.74 11.12 -2.28 -12.26c-51.43,5.55 -450.88,1 -539.12,1 -39.8,0 -97.64,3.42 -135.26,-0.5 -37.71,-3.92 -57.03,-38.71 -73.98,-61.67 -18.66,-25.29 -49.52,-49.52 -39.87,-93.6 9.86,-45 40.56,-45.18 88,-51.37 -1.04,-311.95 116.21,-701.19 281.71,-951.45 81.61,-123.42 185.48,-235.45 300.52,-317.71 96.56,-69.04 187.29,-118.46 301.99,-160.74l86.08 -28.46c19.58,-5.31 21.69,-3.96 29.84,-14.88 -12.32,-93.46 -41.78,-160.81 4.88,-249.72 17.61,-33.53 41.38,-58.67 68.39,-79.04 38.32,-28.92 60.23,-24.88 101.22,-42.08 31.26,-112.67 71.75,-225.13 105.1,-337.14 103.78,-348.59 193.6,-677.65 278.91,-1031.86 82.36,-341.96 166.9,-733.12 231.39,-1083.6l66.59 -365.4c8.32,-77 26.92,-166.36 40.03,-244.57 22.47,-134.1 -89.68,-144.9 -135.85,-119.89 -22.66,12.28 -49.37,52.68 -67.19,76.33 -21.28,28.23 -40.65,54.05 -62,81.38 -21.02,26.92 -109.41,147.82 -126.33,159.09z"/>
   <path class="fil2" d="M11012.96 2632.31c23.03,189.87 35.72,333.89 6.64,527.66 -12.01,80.03 -29.04,158.05 -51.54,231.35 -11.45,37.31 -61.48,186.34 -78.15,204.95 -19.5,70.42 -122.27,230.24 -160.34,281.36l-150.55 181.32c-34.77,38 -73.76,70.73 -112.44,104.79 -20.98,18.49 -37.28,33.14 -60.21,50.29 -109.75,82.13 -217.39,151.39 -344.54,208.84 -25.3,11.44 -57.42,19.43 -78.94,35.55 -5.59,28.24 1.57,165.15 3.82,200.58 4.21,66.36 3.42,139.87 4.15,206.95 7.45,687.65 15.09,1362.64 15.09,2052.15 0,137.96 -1.06,275.84 -1.07,413.7 -0.01,136.24 2.79,278.01 -1.82,413.68 5.6,-8.17 3.22,0.41 6.44,-16.1l0.16 -131.66c-0.57,-37.28 18.49,-48.27 53.41,-93.88 43.57,-56.9 87.61,-113.04 134.52,-168.51 23.26,-27.51 46.84,-54.76 68.67,-83.08 68.19,-88.42 278.72,-313.62 358.62,-399.01 82.95,-88.65 214.21,-218.98 303.04,-303.18l116.01 -109.29c13.05,-13.97 28.68,-23.05 40.27,-37.48l-2.4 -2.12c-12.5,-14.08 -11.74,-20.81 -5.72,-41.08 4.53,-15.27 10.3,-37.13 15.11,-48.18 57.13,0.1 34.28,13.98 27.31,61.65l108.28 -98.04c68.23,-54.76 152,-133.56 225.37,-192.45 157.36,-126.32 122.68,-81.53 179.82,-237.91 187.29,-512.68 352.48,-1071.85 491.66,-1601.37 3.78,-14.37 37.48,-134.74 34.85,-146.37 -3.57,-15.83 -27.18,-21.57 17.36,-59.81 1.19,-1.02 17.88,-14.18 18.94,-14.72 10.33,-5.26 -7.96,-3.47 14.27,-3.91 24.47,-0.47 2.87,-1.94 16.71,3.25l4.92 32.57c-23.63,16.2 -19.22,15.01 -26.73,48.12l-45.09 180.08c-117.48,470.13 -293.46,1055.74 -455.37,1514.78 -11.97,33.95 -31.97,79.44 -38.98,112.3l197.73 -150.16c65.9,-49.52 133.89,-100.43 201.51,-146.67 141.37,-96.66 269.49,-189.14 418.43,-281.94 71.28,-44.41 142.21,-88.58 214.89,-133.28 120.35,-74.02 432.52,-252.71 559.86,-312.57 22.64,-10.65 102.64,-48.12 114.77,-60.38 12.33,-96.92 29.32,-193.71 41.48,-291.41 39.39,-316.13 57.26,-610.23 62.91,-931.98 -32.09,4.54 -46.19,21.94 -65.28,-5.46 2.64,-19.2 11.83,-23.42 30.33,-27.34 29.21,-6.2 32.07,-2.65 34.93,-13.61 -2.65,-658.45 -53.41,-1270.45 -168.05,-1893.18 -52.68,-286.19 -112.34,-567.21 -186.02,-841.92 -18.19,-67.8 -147.88,-553.58 -185.1,-589.29 -19.53,-18.73 -63.32,-33.06 -99.05,-16.21 -30.06,14.18 -116.93,121.1 -140.92,149.83 -6.18,7.4 -8.3,11.27 -14.72,18.18 -12.87,13.82 -15.83,19.08 -28.62,32.76 -8.84,9.46 -19.92,22.81 -30.23,35.27 -9.8,11.83 -19.44,23.62 -29.78,35.88 -185.77,220.16 -340.04,415.45 -520.28,638.82 -101.41,125.68 -236.23,305.04 -332.42,437.58 -186.13,256.53 -354.73,495.76 -527.15,759.09l-200.78 310.23z"/>
   <path class="fil3" d="M9631.35 4546.5c0.13,93.25 -4.17,189.38 -6.92,282.64 -8.05,272.73 -12.48,556.63 -24.4,827.39 -16.07,365.41 -22.49,732.37 -40.44,1097.72 -8.86,180.46 -17.4,365.14 -22.5,545.71 -5.13,181.96 -18.42,364.83 -24.49,546.49 -8.96,267.74 -27.32,543.81 -38.38,813.03 -3.63,88.37 -6.26,181.98 -13.47,269.75 8.56,7.46 -1.25,-0.41 9.75,6.07 4.56,2.69 7.81,4.21 10.94,6.23 -1.06,41.2 -9.18,20.91 -22.77,40.94 -9.49,118.91 -12.39,242.12 -18.58,360.41 -6.29,120.08 -12.25,238.39 -18.59,358.45 -12.13,229.75 10.01,448.64 -128.45,620.57 -152,188.76 -308.97,197.93 -536.49,211.63 -240.08,14.46 -478.11,22.19 -720.98,29.22 -496.89,14.36 -995.97,1.01 -1491.05,-3.57 -419.49,-3.88 -852.61,-25.55 -1273.8,-40.3 -51.46,-1.8 -132.8,-10.54 -182.47,-5.4 -0.54,27.29 -7.4,112.08 -22.28,128.49 -22.96,9.7 -39.61,-8.79 -53.94,-20.38 -99.77,-80.68 -93.32,-87.97 -132.4,-39.65 -46.46,57.46 -93.41,116.44 -140.13,175.32 -47.7,60.14 -91.5,114.49 -140.26,175.08 -46.49,57.77 -88.94,113.27 -138,171.36 -29.5,0.45 -39.49,-13.96 -55.92,-27.02 -49.3,-39.21 -295.61,-233.43 -301.1,-243.89 -11.8,-22.51 8.49,-38.22 19.75,-52.15 30.71,-38 236.04,-289.83 239.68,-303.63l-428.19 -24.5c-255.79,-13.94 -442.44,-198.34 -455.3,-453.95 -20.46,-407.14 -7.36,-926.99 -8.03,-1339.65 -0.09,-61.9 7.83,-840.25 15.11,-896.31l1.74 -76.06c-10.49,8.37 -9.69,-9.08 -10.54,24.79l-0.19 -16.6 -73.68 0c-11.16,-21.26 -67.04,4.84 -134.81,-17.42l-79.63 -7.16c-13,-0.65 -27.5,1.46 -40.19,-0.75 -22.65,-3.93 0.75,-8.96 -26.4,-3.32 -4.93,202.66 -7.71,412.29 -7.45,615.97 0.28,205.78 -5.23,411.88 -5.07,618.51 0.33,411.62 -2.85,827.21 -3.45,1240.42 7.59,118.98 -2.57,251.31 1.88,372.48 4.48,121.58 1.88,250.3 3.67,373.66 1.76,121.44 5.17,245.98 8.6,368.67 1.58,57.17 2,117.3 16.71,170.18 15.47,55.69 36.74,86.49 61.04,128.07 23.82,24.21 33.53,44.74 62.78,67.69 161.03,126.32 252.81,83.25 288.32,101.27 27.9,-3.59 1272.4,34.86 1314.51,35.55 442.88,7.21 887.79,26.32 1331.38,26.53 221.79,0.1 444.07,8.44 667.64,8.21 449.29,-0.48 895.69,9.02 1347.59,1.14 219.27,-3.82 450.13,1.68 667.24,-10.83 124.67,-6.97 252.09,-7.37 377.24,-12.13 132.94,-5.06 212.11,-18.98 319.7,-69.13 125.44,-58.47 237.09,-168.86 299.86,-285.76 26.02,-48.47 36.47,-84.71 57.24,-136.27 15.28,-75.68 23.96,-118.14 25.96,-200.62 1.75,-71.89 -0.03,-150.75 4.41,-221.23 6.87,-106.02 5.61,-228.39 6.55,-335.9l8.7 -331.3c-7.55,-32.3 3.65,-520.34 8.24,-527.27l16.23 -1918.53c4.61,-135.66 1.81,-277.44 1.82,-413.68 0.01,-137.85 1.07,-275.74 1.07,-413.7 0,-689.51 -7.64,-1364.5 -15.09,-2052.15 -0.73,-67.09 0.07,-140.6 -4.15,-206.95 -2.26,-35.43 -9.41,-172.33 -3.82,-200.58 -12.4,-1.95 -140.02,43.12 -170.47,50.49 -59.04,14.27 -123.71,23.34 -181.08,37.58z"/>
   <path class="fil4" d="M9748.68 1311.37c270.51,65.73 499.3,174.46 701.14,345.81 169.24,143.69 289.62,295.72 398.78,494.03 81.91,148.8 124.52,298.64 164.35,481.1l200.78 -310.23c172.42,-263.33 341.02,-502.57 527.15,-759.09 96.19,-132.54 231,-311.9 332.42,-437.58 180.24,-223.37 334.51,-418.66 520.28,-638.82 10.34,-12.26 19.98,-24.05 29.78,-35.88 10.3,-12.46 21.39,-25.81 30.23,-35.27 12.8,-13.68 15.76,-18.94 28.62,-32.76 6.42,-6.91 8.55,-10.78 14.72,-18.18 23.98,-28.73 110.86,-135.64 140.92,-149.83 35.73,-16.85 79.52,-2.51 99.05,16.21 37.22,35.71 166.92,521.49 185.1,589.29 73.68,274.71 133.34,555.73 186.02,841.92 114.65,622.74 165.41,1234.73 168.05,1893.18 -2.87,10.97 -5.72,7.41 -34.93,13.61 -18.5,3.92 -27.69,8.14 -30.33,27.34 19.1,27.41 33.2,10 65.28,5.46 -5.65,321.74 -23.52,615.85 -62.91,931.98 -12.16,97.7 -29.15,194.5 -41.48,291.41 59.57,-11.01 431.47,-237.7 519.27,-296.92 338.5,-228.31 614,-440.71 919.03,-711.15 19.83,-17.6 32.27,-29.11 51.15,-47.01 9.24,-8.76 17.39,-13.56 26.96,-22.39l186.91 -173.38c82.6,-73.54 182.06,-181.88 258.5,-249.45 36.75,-32.47 66.59,-68.9 101.53,-103.23 100.87,-99.14 227.78,-232.99 323.19,-336.15 9.41,-10.18 15.39,-18.06 24.75,-28.68 8.6,-9.73 15.85,-15.14 24.53,-24.5l241.81 -270.3c8.42,-10.07 15.41,-15.46 23.55,-25.6l283.8 -330.57c101.78,-114.07 221.98,-274.12 322.5,-394.25 16.28,-19.47 81.43,-99.18 89.69,-116.47 -705.78,-95.82 -1470.61,-107.72 -2132.41,-374.37 -205.69,-82.87 -416.08,-219.24 -552.92,-384.91l-107.6 -125.98c-58.62,-73.61 -166.42,-171.15 -232.09,-239 -13.42,-13.89 -28.22,-22.69 -41.56,-36.35 -54.22,-55.51 -198.3,-162.57 -262.44,-208.52 -334.82,-239.87 -770.06,-373.63 -1226.62,-310.25 -541.53,75.18 -1071,386.26 -1518.62,673.13 -63.53,40.7 -127.59,82.96 -191.63,123.86 -127.88,81.69 -250.65,169.53 -376.88,249.84l-377.45 248.86z"/>
   <path class="fil5" d="M965.86 7528.61l-812.49 -0.44c-41.42,0.64 -73.1,-1.99 -109.42,12.19 -40.83,15.95 -42.92,29.6 -42.74,78.12 4.57,1239.56 0.02,2487.54 0.02,3727.39 0,81.93 0,163.84 0,245.77 0,42.86 -7.91,77.33 16.55,104.25 19.29,21.24 48.29,35.15 83.78,43.37 60.49,14.01 166.37,6.03 233.54,6.03l2985.98 -4.11c38.94,0 82.4,1.8 120.79,-0.48 41.77,-2.5 66.5,-14.57 108.72,-17.68 -35.51,-18.02 -127.29,25.05 -288.32,-101.27 -29.25,-22.95 -38.96,-43.48 -62.78,-67.69 -53.46,-7.18 -191.5,-73.73 -243.02,-97.57 -27.38,-12.66 -27.05,-17.86 -61.13,-17.74 -193.4,0.63 -400.12,-6.7 -594.16,-6.78 -53.9,-0.02 -305.14,4.28 -338.55,-5.7l-1.65 -80.42 804.4 6.51c-97.77,-59.34 -141.23,-93.85 -225.45,-155.12 -16.52,-12.02 -61.58,-52.69 -75.29,-55.55 -48.07,-10.01 -489.39,7.73 -504.2,-8.75 -8.28,-20.31 -3.06,-55.02 -4.46,-79.15l414.4 2.84 -78.93 -73.7c-12.61,-14.38 -25.83,-23.82 -39.86,-38.02l-79.54 -80.19c-19.41,-22.8 -20.4,-15.71 -59.25,-15.61 -45.87,0.11 -116.15,2.4 -159.72,-2.88 0.01,-23.73 -4.81,-59.46 1.49,-80.58l125.66 1.66c-5.42,-14.16 -25.5,-36.03 -34.79,-46.34 -14.16,-15.72 -24.51,-29.41 -37.02,-44.96 -143.81,-178.69 -213.48,-278.51 -337.07,-477.93 -27.99,-45.17 -97.85,-162.92 -118.49,-206.97l-1034.24 -7.88c-8.51,-21.54 -3.09,-53.6 -1.12,-76.97 29.13,-6.99 426.89,0.58 493.45,0.46 164.65,-0.3 330.5,1.17 495.43,2.75l-90.29 -184.95c-8.58,-14.32 -0.21,-4.58 -10.28,-11.74l-886.59 -8.82c-5.94,-23.32 -4.61,-54.57 -0.83,-78.48l852.52 5.59 -84.65 -197.47 -766.86 -4.64 -0.76 -77.78 735.36 2.04 -75.22 -194.79 -657.14 -4.26 -0.68 -75.26 629.98 -0.09 -65.95 -193.06 -561.71 -4.11c-5.87,-24.39 -2.64,-52.33 -2.63,-76.71l538.76 3.23 -56.92 -193.01 -476.81 -2.89 -2.07 -75.07 456.24 1.77 -50.04 -191.14 -406.28 -1.37 0.55 -76.78 1068.47 2.14 -0.01 77.15 -418.5 -1.68 206.45 81.33c69.05,27.57 133.45,57.82 199.47,87.21 128.9,57.4 261.86,128.72 376.83,196.71l132.64 80.4c21.35,13.76 21.53,19.46 51.78,18.95 278.27,-4.72 577.65,8.74 858.88,4.05l6.24 77.89 -769.84 -2.71 206.2 154.72c30.46,24.86 31.23,39.83 79.43,39.12 162.17,-2.39 327.35,2.56 490.13,2.56l0.73 78.01 -426.94 -2.01c5.68,13.78 68.96,70.07 80.16,80.69 140.75,133.46 80.89,117.6 196.12,117.7 27.77,0.03 138.95,-2.5 156.37,4.7l4.47 76.07 -168.77 -1.39 143.63 183.73c14.23,20.67 6.95,11.49 30.67,18.54 1.65,40.17 17.41,45.93 48.3,95.01 31.89,50.64 26.08,43.94 26.07,116.37 0,20.03 -5.59,265.12 4.52,286.06 0.61,-413.2 3.79,-828.8 3.45,-1240.42 -0.16,-206.63 5.35,-412.73 5.07,-618.51 -0.27,-203.68 2.51,-413.31 7.45,-615.97l2.31 -184.28 -755.01 0.82 1.06 46.02 -116.87 0 -1.3 -43.46c-26.51,-7.3 -911.32,-0.49 -965.51,-0.58l0.68 43.97 -323.06 0.03z"/>
   <path class="fil6" d="M6353.1 4751.32c-28.45,153.72 -302.07,174.69 -241.76,-15.92 60.76,-192.02 270.04,-136.84 241.76,15.92zm-2126.45 1173.24c14.24,-1.03 12.38,1.01 26.18,8.06 151.95,77.74 610.34,114.7 784.57,116.06 27.21,0.22 44.49,5.49 73.61,4.94 26.78,-0.51 50.77,-1.41 75.99,1.83 43.79,5.62 110.71,2.31 157.57,2.19l151.49 4.18c156.88,3.86 316.56,-6.8 466.95,-3.74 53.46,1.08 98.94,-5.83 151.55,-5.53 26.78,0.15 50.46,1.75 77.87,0.38l1359.87 -57.04c38.43,1.17 180.1,-12.9 225.34,-12.11 45.07,0.79 136.92,-10.28 180.03,-12.59 14.86,-0.79 24.47,1.22 39.82,-0.87 20.12,-2.76 48.71,-3.24 71.64,-6.17 72.14,-9.21 202.38,-11.05 291.76,-23.65 92.49,-13.03 176.92,-17.8 281.55,-33.89 66.23,-10.18 129.25,-22.44 193.93,-39.71 22.8,-6.09 43.12,-15.79 63.67,-19.98 -60.84,-347.76 -157.62,-625.15 -363.88,-903.99 -262.79,-355.23 -657.88,-589.81 -1087.88,-697.79 -312.13,-78.38 -583.65,-98.69 -920.15,-99.09 -309.38,-0.37 -605.14,50.3 -876.74,142.07 -258.28,87.26 -486.55,218.84 -693.43,387.98 -13.08,10.68 -24.72,19.9 -35.33,30.18 -12.21,11.83 -21.83,16.92 -33.11,28.38l-218.04 228.27c-19.63,23.1 -37.71,46.31 -56.33,70.68 -172.34,225.62 -355.22,577.39 -388.49,890.93z"/>
   <path class="fil7" d="M15581.3 9526.41c4.05,16.05 20.2,37.48 29.24,52.72 17.91,30.18 17,19.64 5.44,56.74 7.39,12.98 17.2,20.69 29.55,30.97 21.9,18.22 72.2,68.28 90.88,74.06 43.73,-45.99 90.71,-87.67 150.73,-128.02 40.06,-26.94 130.89,-83.07 182.59,-98.05 15.32,-15.86 122.74,-49.6 152.03,-59.17 41.65,-13.62 150.01,-56.95 130.42,24.67 -41.87,174.43 -212.43,393.84 -330.96,516.43 -41.67,43.08 -191.61,213.96 -246.74,155.38 -17.18,-2.28 -49.73,-28.85 -59.72,-38.37 -14.91,-14.22 -29.68,-34.29 -42.86,-55.55 -21.32,-34.35 -47.69,-95.58 -45.84,-145.17 -24.57,-19.21 -48.01,-36.38 -72.9,-55.43 -17.37,-13.26 -54.15,-43.54 -69.29,-50.33 -17.92,8.72 -18.72,19.52 -41.73,6.02 -14.66,-8.61 -24.33,-14.12 -38.87,-22.82 -27.26,-16.3 -52.61,-30.85 -79.57,-47.15 -17.11,3.7 -179.82,134.42 -193.54,144.7 -131.99,98.78 -254.25,184.33 -392.72,275.02 -487.23,319.09 -1006.6,582.02 -1563.51,766.99 -170.98,56.78 -337.72,104.15 -515.72,151.74 -246.32,65.87 -868.66,183.04 -1138.76,194.32 -6.78,77.81 -12.42,142 -28.34,219.57 -10.46,50.92 -26.23,182.91 -95.04,106.51 -60.44,-67.12 -109.55,-136.44 -153.03,-219.25 -13.1,-24.96 -26.26,-57.09 -39.89,-81.14 -48.37,-2.16 -111.1,4.22 -161.07,6.05 -259.08,9.49 -545.14,5.69 -803.18,-9.42 -41.4,-2.42 -287.03,-26.76 -305.92,-18.1 -20.77,51.56 -31.21,87.8 -57.24,136.27 -62.76,116.9 -174.42,227.28 -299.86,285.76 -107.59,50.15 -186.76,64.07 -319.7,69.13 -125.14,4.76 -252.57,5.16 -377.24,12.13 53.71,29.67 1090.61,143.32 1231.47,158.09 429.76,45.04 872.38,67.65 1312.66,77.82 1194.44,27.62 2524.57,-93.43 3588.57,-587.16 214.41,-99.5 521,-283.2 693.39,-436.96l222.23 -212.01c24.06,-28.92 52.92,-56.17 81.98,-94.19 65.2,-85.29 84.15,-107.32 145.96,-202.2 272.95,-418.93 328.71,-920.91 215.37,-1409.93 -22.27,-96.05 -52.87,-178.5 -81.47,-267.92l-258.42 279.49c-108.89,120.58 -206.38,202.82 -312.85,309.76 -16.81,16.89 -131,111.57 -136.53,128.02z"/>
   <path class="fil8" d="M1351.77 3773.56l1842.16 -0.06c-3.74,-35.53 1.29,-98.64 2.19,-136.98l35.72 -1543.5c3.03,-134.4 11.59,-230.5 86.23,-342.85 56.94,-85.71 132.19,-151.55 234.9,-195.34 81.1,-34.59 149.72,-38.22 243.2,-43.18 184.42,-9.79 370.92,-14.83 557.09,-14.65 345.92,0.32 786.7,2.43 1126.43,23.52 -36.09,-42.38 -595.3,-298.03 -687.45,-337.72 -772.4,-332.63 -1742.06,-547.13 -2513.22,-168.8 -436.69,214.22 -771.96,589.89 -966.83,1085.48 -96.3,244.88 -173.08,557.9 -169.8,853.71 1.75,157.1 23.04,307.93 65.9,445.87 20.96,67.45 41.83,127.11 66.91,191.01l76.57 183.49z"/>
   <path class="fil9" d="M16438.24 4560.72c209.06,-36.2 348.74,-65.31 572.02,-14.41 97.5,22.24 151.1,55.99 188.59,126.47 42.83,80.48 19.65,176.91 -1.37,262.88 -0.5,18.78 -2,10.72 38.73,23.85l126.47 49.5c56.01,25.98 101.73,50.77 151.59,81.84 68.66,42.78 139.31,98.99 193.14,154.89l59.99 59.65 188.48 -206.18c134.4,-147.86 228.95,-272.62 346.53,-439.8 53.87,-76.57 100.05,-157.85 150.76,-242.4 203.24,-338.84 341.26,-807.97 357.9,-1217.92 31.9,-786.05 -419.04,-1133.81 -1040.18,-1318.06 -103.58,-30.73 -205.76,-55 -314.3,-78.82 -53.97,-11.85 -110.32,-21.97 -164.88,-31.85 -54.03,-9.79 -117.71,-22.27 -171.48,-27.63l-66.59 365.4c-64.5,350.47 -149.03,741.64 -231.39,1083.6 -85.3,354.21 -175.13,683.27 -278.91,1031.86 -33.35,112.01 -73.84,224.48 -105.1,337.14z"/>
   <path class="fil10" d="M1274.86 6670.18c71.8,-6.73 169.6,-2.05 243.98,-2.05 85.42,0 694.43,-4.72 723.55,2.16l5.56 451.44 -966.68 1.45 -6.41 -453zm955.33 -819.28l7 454.84 -969.65 1.15 -8.15 -455.87 970.8 -0.12zm-984.19 -821.19l972.09 1.35 6.56 455.88 -970.83 0.12 -7.82 -457.35zm-14.12 -829.5l974.06 1.48 6.49 461.18 -972.54 -1.55 -8.01 -461.12zm-265.97 1878.69l-0.07 1449.7 323.06 -0.03 -0.68 -43.97c54.19,0.09 939.01,-6.72 965.51,0.58l1.3 43.46 116.87 0 -1.06 -46.02 755.01 -0.82 5.11 -360.72 -765.54 1.13 -5.94 -455.32 778.57 0.25 6.88 -407.42c-10.54,13.42 -7.12,27.69 -6.76,45.09l-784.63 1.13 -5.77 -455.74 796.95 -1.37 2.87 57.22c0.56,-0.83 1.05,-2.12 1.26,-2.76l9.76 -416.29 -816.96 0.09 -6.8 -457.37 831.85 -0.1 8.15 -367.13 -845.03 -1.19 -6.33 -461.1 850.11 -0.01 3.96 -0.03 2.26 64.84c11.35,-13.73 7.76,-430.35 14.1,-491.53l-1842.16 0.06c-95.26,-1.39 -234.74,-15.63 -306.09,29.41 -92.88,58.63 -79.81,121.62 -79.81,256.14l0.05 2019.8z"/>
   <path class="fil11" d="M5909.43 1710.61c52.14,-9.96 354.39,-3.09 424.8,0.06 134.46,6 269.45,10.44 404.94,20.53 132.23,9.85 264.17,18.98 395.28,30.34 72.14,6.25 121.39,8.73 140.82,71.74 20.32,65.86 -15.13,120.55 -68.38,131 -28.79,5.65 -766.41,-38.11 -812.24,-41.02 -56.94,-3.63 -472.63,-19.99 -501.56,-30.75 -87.3,-32.43 -81.92,-163.1 16.34,-181.89zm-2715.5 2062.89c-6.34,61.19 -2.75,477.8 -14.1,491.53 7.06,45.34 0.08,148.6 -1.47,199.57 -1.99,65.49 -4.11,132.5 -3.49,197.91l-8.15 367.13 -8.09 457.39 -9.76 416.29c-0.21,0.65 -0.7,1.93 -1.26,2.76 6.84,28.18 1.58,143.01 0.03,178.54 -2.54,57.84 -0.69,117.19 -2.68,175.12l-6.88 407.42 -7.09 453.94 -5.11 360.72 -2.31 184.28c27.15,-5.64 3.76,-0.61 26.4,3.32 12.68,2.21 27.19,0.09 40.19,0.75l79.63 7.16c67.77,22.26 123.65,-3.84 134.81,17.42l73.68 0 0.19 16.6c0.85,-33.87 0.05,-16.42 10.54,-24.79l-1.74 76.06c-8.19,-22.06 22.68,-1124.61 28.44,-1243.44 9.97,-205.64 13.03,-415.06 18.59,-621.14 27.61,-1023.82 69.67,-2068.99 114.39,-3092.42 11.72,-268.16 -10.65,-455.26 186.35,-612.42 26.7,-21.29 62.44,-42.49 100.76,-59.07 88.89,-38.46 176.05,-36.35 278.2,-40.64 410.2,-17.24 844.03,-5.72 1253.3,10.95 618.49,25.2 1204.38,58.76 1818.88,102.02 99.81,7.03 199.52,13.78 298.82,21.69 45.93,3.65 278.59,23.75 303.51,21.1l12.04 -22.85c29.66,-81.56 120.52,-224.21 166.18,-282.42l74.27 -93.72c25.02,-32.31 59.33,-62.9 78.72,-85.03 14.08,-16.06 43.76,-36.97 52.28,-56.01 -112.24,-5.07 -230.31,-19.65 -343.06,-28.94 -697.36,-57.4 -1393.91,-109.19 -2092.84,-143.64 -117.8,-5.82 -239.48,-14.57 -356.39,-16.13 -339.73,-21.09 -780.52,-23.2 -1126.43,-23.52 -186.17,-0.18 -372.67,4.86 -557.09,14.65 -93.47,4.96 -162.1,8.59 -243.2,43.18 -102.71,43.79 -177.97,109.63 -234.9,195.34 -74.64,112.35 -83.21,208.45 -86.23,342.85l-35.72 1543.5c-0.9,38.34 -5.93,101.45 -2.19,136.98z"/>
   <path class="fil12" d="M3199.48 11554.05c-24.31,-41.58 -45.57,-72.38 -61.04,-128.07 -14.71,-52.87 -15.12,-113.01 -16.71,-170.18 -3.43,-122.68 -6.84,-247.23 -8.6,-368.67 -1.79,-123.36 0.81,-252.08 -3.67,-373.66 -4.45,-121.18 5.71,-253.5 -1.88,-372.48 -10.1,-20.94 -4.52,-266.03 -4.52,-286.06 0.01,-72.44 5.82,-65.74 -26.07,-116.37 -30.89,-49.08 -46.65,-54.84 -48.3,-95.01 -23.72,-7.05 -16.44,2.13 -30.67,-18.54l-143.63 -183.73 168.77 1.39 -4.47 -76.07c-17.43,-7.19 -128.6,-4.67 -156.37,-4.7 -115.23,-0.1 -55.37,15.76 -196.12,-117.7 -11.2,-10.63 -74.48,-66.92 -80.16,-80.69l426.94 2.01 -0.73 -78.01c-162.78,0 -327.96,-4.95 -490.13,-2.56 -48.2,0.71 -48.97,-14.26 -79.43,-39.12l-206.2 -154.72 769.84 2.71 -6.24 -77.89c-281.23,4.69 -580.61,-8.78 -858.88,-4.05 -30.26,0.51 -30.44,-5.19 -51.78,-18.95l-132.64 -80.4c-114.97,-67.99 -247.93,-139.31 -376.83,-196.71 -66.01,-29.39 -130.42,-59.64 -199.47,-87.21l-206.45 -81.33 418.5 1.68 0.01 -77.15 -1068.47 -2.14 -0.55 76.78 406.28 1.37 50.04 191.14 -456.24 -1.77 2.07 75.07 476.81 2.89 56.92 193.01 -538.76 -3.23c-0.01,24.37 -3.24,52.31 2.63,76.71l561.71 4.11 65.95 193.06 -629.98 0.09 0.68 75.26 657.14 4.26 75.22 194.79 -735.36 -2.04 0.76 77.78 766.86 4.64 84.65 197.47 -852.52 -5.59c-3.78,23.91 -5.1,55.16 0.83,78.48l886.59 8.82c10.07,7.15 1.7,-2.58 10.28,11.74l90.29 184.95c-164.93,-1.58 -330.78,-3.06 -495.43,-2.75 -66.56,0.12 -464.32,-7.45 -493.45,-0.46 -1.97,23.38 -7.39,55.44 1.12,76.97l1034.24 7.88c20.64,44.05 90.5,161.8 118.49,206.97 123.59,199.42 193.25,299.24 337.07,477.93 12.51,15.55 22.86,29.24 37.02,44.96 9.29,10.3 29.37,32.17 34.79,46.34l-125.66 -1.66c-6.3,21.12 -1.48,56.85 -1.49,80.58 43.58,5.28 113.85,3 159.72,2.88 38.85,-0.1 39.84,-7.19 59.25,15.61l79.54 80.19c14.03,14.19 27.25,23.63 39.86,38.02l78.93 73.7 -414.4 -2.84c1.39,24.13 -3.82,58.83 4.46,79.15 14.81,16.48 456.13,-1.26 504.2,8.75 13.71,2.86 58.78,43.53 75.29,55.55 84.22,61.27 127.68,95.79 225.45,155.12l-804.4 -6.51 1.65 80.42c33.41,9.98 284.65,5.68 338.55,5.7 194.04,0.09 400.76,7.41 594.16,6.78 34.08,-0.11 33.75,5.09 61.13,17.74 51.53,23.84 189.56,90.39 243.02,97.57z"/>
   <path class="fil13" d="M12534.25 7690.44c8.42,29.73 40.39,89.6 55.82,116.85 21.7,38.3 42.95,74.63 66.35,109.8 24.37,36.63 131.62,185.1 154.63,197.76 22.89,-5.88 42.88,-14.08 63.04,-24.14 23.79,-11.87 35.62,-23.95 52.48,-33.5 -4.76,-19.7 -20.92,-49.82 -28.93,-70.12 -28.21,-71.63 -52.48,-153.58 -64.57,-230.67 -36.15,-230.38 21.2,-428.42 207,-560.41 61.92,-43.99 178.94,-103.24 276.03,-120.19 -13.66,74.06 -127.95,449.72 -150.36,520.07 -35.68,112.07 -130.76,405.03 -172.87,498.96 47.05,51.56 300.01,152.49 5.21,320.6 -101.74,58.03 -86.62,15 -124.25,-17.87 -11.67,25.48 -23.2,52.54 -34.99,79.75 -19.41,44.73 2.86,57.47 25.78,80.37 41.8,1.46 369.73,141.69 728.52,55.31 126.38,-30.43 162.89,-63.83 205.63,-76.91l190.92 -271.99c30.8,-46.55 63.47,-88.04 94.43,-134.91l475.39 -684.42c7.14,1.53 152.88,63.52 218.89,82.8 39.75,11.62 78.94,22 120.02,31.36 36.93,8.42 89.91,14.8 122.72,24.77 244.34,33.56 485.95,70.78 704.11,-62.08 74.53,-45.39 142.32,-116.38 156.54,-123.8 2.49,-10.69 42.81,-54.49 53.07,-68.01 55.93,-73.62 96.88,-144.26 136.57,-232.16 29.11,-64.46 118.73,-304.42 115.09,-374.66l-196.21 20.4 -11.49 -37.25c-42.31,32.22 -203.73,461.1 -661.37,409.89 -98.59,-16.67 -195.29,-51.64 -269.89,-95.24 -124.04,-72.49 -118.2,-76.53 -214.25,-150.31l-48.99 -45.14c-32.55,-30.85 -419.17,-158.75 -471.1,-164.77 -16.7,82.55 4.54,128.21 -76.57,150.98 -92.27,25.89 -198.42,21.85 -281.17,-29.84 -149.3,-93.26 -54.92,-145.44 -37.73,-210.78 -233.02,-24.98 -375.73,-42.18 -605.63,16.43 -201.28,51.33 -369.27,127.05 -518.54,235.01 -114.63,82.89 -206.27,182.76 -269.14,316.49 -86.35,183.68 -58.38,370.59 9.84,551.56z"/>
   <path class="fil14" d="M16370.66 4910.23c-28.33,-0.53 -75.98,15.89 -106.9,21.34 -8.15,10.92 -10.26,9.56 -29.84,14.88l-86.08 28.46c-114.7,42.28 -205.43,91.7 -301.99,160.74 -115.04,82.26 -218.91,194.29 -300.52,317.71 -165.49,250.26 -282.75,639.5 -281.71,951.45 118.04,-4.13 243.02,-0.48 361.83,-0.48 604.84,0 1209.69,0 1814.52,0 92.03,0 687.46,-8.86 724.26,3.8 -16.5,-234.04 -48.41,-425.77 -122.53,-628.38 -57.06,-155.97 -132.62,-296.03 -232.81,-422.59 -10.05,-12.7 -36.97,-40.9 -41.49,-51.75l-59.99 -59.65c-53.83,-55.9 -124.48,-112.11 -193.14,-154.89 -49.87,-31.07 -95.58,-55.86 -151.59,-81.84l-126.47 -49.5c-40.73,-13.13 -39.23,-5.08 -38.73,-23.85 -14.38,6.08 -36.09,-3.46 -51.01,-7.51 -8.1,-2.19 -18.8,-4.56 -27.02,-6.28 -7.09,-1.48 -22.09,-3.98 -29.14,-5.34 -14.72,2.77 -138.15,-20.4 -167.76,-23.72 -115.79,-12.95 -261.34,-14.57 -377.56,-3.54 -35.95,3.41 -152.01,23.5 -174.35,20.96z"/>
   <path class="fil15" d="M8271.99 1709.23c-8.52,19.03 -38.2,39.94 -52.28,56.01 -19.39,22.13 -53.7,52.71 -78.72,85.03l-74.27 93.72c-45.66,58.21 -136.53,200.86 -166.18,282.42 9.11,2.74 10.98,1.46 18.98,-5.12 -1.99,16.61 -6.95,2.03 -1.25,19.76 2.68,8.36 -1.12,8.78 0.77,14.72 4.23,13.32 -7.69,0.04 4.68,6.46 8.96,9.17 -11.71,1.44 17.57,8.29 21.07,4.91 10.23,-7.64 15.03,8.26l32.77 0 0 16.39 65.54 8.19 0 16.39 65.53 8.2 0 16.39c5.75,0 16.17,-0.58 21.52,0.15 8.98,1.21 6.95,1.72 9.35,2.5 11.86,3.84 32.49,10.46 43.89,8.73 12.31,-14.04 31.88,-55.24 44.32,-75.35 58.35,-94.44 140.3,-198.88 222.32,-273.4 78.47,-71.28 112.52,-100.26 211.75,-165 187.29,-122.17 429.04,-196.91 660.57,-206.54 39.49,-1.66 89.82,2.87 126.38,-0.95l-34.26 -146.31c9.91,2.45 353.53,219.99 365.38,232.14l-420.19 100.98c10.59,-31.19 61.11,-91.52 73.61,-122.39 -462.36,-9.88 -895.98,257.16 -1120.19,629.82 -16.39,27.24 -81.38,140.4 -82.48,170.23 5.32,5.7 2.38,2.59 4.54,12.06 1.27,5.58 0.76,7.75 2.25,13.25l4.44 11.64c2.23,7.26 2.24,3.68 2.47,13.02 41.64,0 31.07,24.57 91.02,24.57 7.76,9.86 5.13,10.58 8.2,20.19l59.32 12.82c16.94,8.72 -6.54,1.68 12.32,7.14 12.84,3.72 9.77,-2.67 25.71,8.61 24.68,17.45 -10.64,-6.07 6.61,5.45 13.05,8.73 24,6.83 37.46,10.95 34.09,10.44 2.04,4.49 48.21,4.49 0,-34.96 8.96,-11.62 4.87,-37.89l15.39 -38.75c-9.45,-24.8 -41.38,-93.09 -42.65,-112.99 50.38,-51.89 170.09,-103.19 263.03,-118.94 212.31,-35.95 439,34.06 478.18,275.86 13.7,84.56 2.11,166.66 -33.9,242.29 -9.12,19.17 -29.33,49.67 -32.27,65.63 26.67,-9.87 -10.46,-11.45 28.98,-20.93 9.39,28.41 -11.09,19.04 -0.07,16.39 5.3,19.52 -5.73,1.02 8.24,11.12 10.23,7.39 16.34,2.53 28.83,7.69l80.49 33.56c10.67,2.59 38.79,4.63 51.62,4.63l15.14 16.76c5.09,4.15 6.62,3.05 12.94,10.72 2.06,-1.41 387.25,-628.66 396.17,-652.37 54.32,-0.09 293.66,-6.72 327.4,2.6l0.48 639.02 128.55 0.02 2.25 200.08c-9.44,13.5 -48.67,7.22 -63.73,7.21 -20.49,-0.01 -40.98,0 -61.47,0l0.01 86.95c42.77,0.41 23.73,8.94 81.78,21.84 33.24,7.38 36.21,27.61 77.98,27.61l8.2 16.39c31.2,-0.28 18.98,2.64 38.81,7.2 6.39,1.48 7.63,0.33 14.18,2.49l55.96 26.69c45.06,22.39 52.48,0.66 52.51,0.65 12.66,-6.94 17.46,-4.25 33.92,-4.25l0 36.86 25.79 0 8.2 16.39c16.06,0 14.28,-2.31 26.75,4.13 14.16,7.32 -2.65,2.67 22.34,9.34 12.51,3.34 11.95,1.75 24.12,16.27 2.43,2.9 4.19,4.84 5.93,8.28 7.18,-12.2 18.4,-43.32 24.93,-61.9 7.26,-20.64 12.11,-55.8 31.77,-59.56 58.9,-11.25 5.41,101.52 -1.64,127.17 29.72,-2.65 10.82,5.81 10.81,5.83 -4.29,10 -7.21,-2.5 -1.26,7.13 6.35,10.29 30.78,8.61 47.81,8.61l0 16.26 57.04 9.15c11.65,3.35 1.24,0.03 7.92,3.98l4.67 3.56c13.97,8.19 11.33,0.82 34.07,15.13 12.01,7.55 20.94,13.98 35.77,5.29 -3.84,12.08 -3.18,7.2 -4.48,23.45l0.4 21.37c8.95,4.09 9.56,0.29 12.46,-0.83 16.67,-18.61 66.7,-167.65 78.15,-204.95 22.5,-73.29 39.53,-151.32 51.54,-231.35 29.08,-193.77 16.39,-337.8 -6.64,-527.66 -39.83,-182.46 -82.45,-332.29 -164.35,-481.1 -109.16,-198.31 -229.54,-350.34 -398.78,-494.03 -201.84,-171.36 -430.63,-280.08 -701.14,-345.81 -294.9,-61.66 -582.03,-48.65 -857.84,39.35 -387.69,123.7 -582.04,340.96 -618.85,358.51z"/>
   <path class="fil2" d="M12422.4 10279.77c-7.95,11.59 -399.31,280.66 -417.25,292.49l-210.8 145.63c-189.62,132.86 -138.07,114.24 -220.74,79.06 -18.12,18.5 -36.91,34.53 -56.36,53.42 -17.61,17.12 -38.16,32.83 -51.89,53.81 48.23,96.68 55.13,256.81 54.07,371.92 270.09,-11.28 892.44,-128.45 1138.76,-194.32 178,-47.59 344.74,-94.96 515.72,-151.74 556.9,-184.97 1076.28,-447.9 1563.51,-766.99 138.47,-90.68 260.73,-176.24 392.72,-275.02 13.72,-10.28 176.43,-141 193.54,-144.7 -13.61,-11.21 -46,-29.32 -62.7,-39.96 -62.38,-39.73 -117.47,-80.94 -175.48,-123.61l-83.31 -68.14c-47.8,-36.76 -76.07,-73.84 -115.44,-110.16l-12.95 -8.16 -68.99 39.73c-12.56,6.18 -20.28,11.65 -34,19.07 -147.44,79.66 -297.9,158.96 -452,224.32l-164.33 73.13 -668.39 241.47c-5.2,1.68 -12.8,4.94 -20.63,7.75 -62.65,22.44 -174.02,48.63 -217.44,65.07l-159.52 46.13c-12.13,2.93 -26.16,8.61 -40.1,12.71l-144.3 39.98c-6.06,1.76 -11.08,2.59 -20.63,4.57l-31.15 9.26c-5.71,1.6 -4.99,1.22 -10.36,2.39 -15.44,3.37 -26.51,7.89 -40.93,11.91 -13.45,3.76 -23.77,6.66 -38.98,10.4l-83.27 22.89c-13.02,3.7 -28.86,8.36 -41.54,11.81l-162.42 42.57c-20.09,4.93 -30.91,3.7 -36.07,10.63 -29.81,0 -7.88,2.24 -16.34,-9.33z"/>
   <path class="fil16" d="M7245.54 6439.14c3.88,64.49 16.72,134.65 4.76,197.63 -40.09,211.05 -280.73,173.88 -435.91,130.37 -109.87,-30.8 -217.47,-73.9 -330.85,-95.44 -143.8,-27.32 -270.03,24.18 -394.66,2.15 -110.37,-19.51 -204.5,-94.02 -285.5,-141.29 -38.98,-22.74 -26.46,-20.55 -69.94,-3.43 -163.15,64.25 -474.6,92.81 -642.86,102.72 -68.03,4 -135.83,6.94 -204.84,8.86 -70.82,1.96 -139.62,-2.23 -209.35,-1.79 -54.47,-2.13 -106.65,-9.12 -157.95,-21.41 -22.34,-5.36 -44.57,-12.05 -66.05,-19.96 -20.62,-7.59 -42.3,-20.12 -60.87,-24.19 5.49,190.96 23.79,300.17 129.7,459.4 13.81,20.77 26.8,38.22 41.36,57.01l36.6 36.85c10.28,8.64 5.41,2.09 13.37,13.26 16.75,7.32 39.07,27.86 85.35,48 106.27,46.29 252.93,31.21 376.26,31.2l1642.49 1.01c360.6,0.46 722.12,-6.95 1081.35,-10.26 175.64,-1.6 356.53,-6.97 529.77,-15.09 97.2,-4.56 151.31,-6.2 238.43,-36.79 95.03,-33.39 117.36,-68.74 171.77,-105.01 50.75,-56.92 98.6,-111.48 130.18,-211.59 35.29,-111.88 18.63,-188.43 -14.93,-292.13 -180.71,67.31 -529.27,40.01 -727.52,24.33 -159.05,-12.57 -565.74,-56.96 -631.42,-151.7l-248.75 17.31z"/>
   <path class="fil17" d="M9986.83 9664.01c-4.58,6.94 -15.79,494.98 -8.24,527.27l2.86 53.99c48.82,-46.03 371.9,-233.02 429.55,-259.49 52.5,-24.1 102.93,-53.74 155.58,-77.73 250.49,-114.14 407.88,-173.04 674.06,-255.78 236.42,-73.5 474.19,-146.74 711.05,-218.8l713.65 -218.93c14.17,-26.25 35.39,-103.81 46.89,-138.87 15.78,-48.08 30.52,-95.37 45.64,-142.67 11.76,-36.85 80.82,-271.13 89.47,-283.43 1.21,-25.84 -3.66,-23.71 4.72,-48.44 5.22,-15.34 10.17,-27.93 12.56,-43.42 -22.92,-22.9 -45.19,-35.64 -25.78,-80.37 11.79,-27.21 23.32,-54.27 34.99,-79.75 -9.86,-30.36 -32.79,-51.77 -52.03,-125.34 -23.96,-91.55 -6.18,-114.16 -10.74,-157.4 -23.01,-12.66 -130.26,-161.13 -154.63,-197.76 -23.4,-35.17 -44.65,-71.5 -66.35,-109.8 -15.43,-27.25 -47.4,-87.12 -55.82,-116.85 -10.65,1.78 -7.2,-3.71 -25.05,15.02l-200.47 200.84c-14.65,14.8 -25.07,20.88 -39,34.73l-448.4 419.97c-39.45,40.3 -139.2,121.95 -188.25,167.84 -59.06,55.26 -169.23,142.97 -233.56,200.63 -13.63,12.22 -27.26,20.85 -40.88,32.91l-159.24 131.3c-13.86,11.02 -25.52,21.82 -37.95,31.48l-285.68 222.46c-14.13,11.37 -25.11,19.82 -39.11,30.32l-250.45 183.73c-12.43,9.4 -28.7,20.4 -43.16,30.45l-540.51 360.68c-5.01,2.94 -2.68,0.18 -9.56,6.21 -9.78,8.59 -3.76,-0.19 -3.63,5.83 0,-30.17 5.13,-73.5 -2.51,-100.83z"/>
   <path class="fil18" d="M4289.55 8033.6c-26.06,27.87 -23.95,136.65 -18.68,179.82 7.12,58.37 22.83,110.58 45.11,159.29 42,91.74 116.3,172.42 189.9,219.66 104.37,66.97 174.55,81.44 315.73,93.13 130.6,10.8 260.46,16.87 391.77,21.39 534.96,18.42 1080.85,6.83 1613.71,-10.38 525.88,-16.97 1047.63,-43.21 1568.15,-75.59 125.59,-7.81 249.75,-7.37 363.32,-45.96 54.31,-18.45 92.83,-39.56 137.43,-67.3 20.6,-12.8 41.6,-28.02 59.19,-43.24 98.22,-85.02 166.18,-177.66 205.57,-310.55 30.63,-103.36 44.17,-261.15 -18.64,-343.5 -38.61,23.51 -43.54,35.75 -105.29,68.08 -35.87,18.79 -77.53,36.22 -117.37,50.56 -246.31,88.59 -578.34,136.4 -841.16,166.31 -745.04,84.76 -1838.24,102.74 -2594.51,85.59 -193.83,-4.4 -795.71,-8.87 -968.38,-40.62 -89.71,-16.5 -142.59,-34.82 -210.46,-84.39 -11.96,-8.72 -12.9,-5.42 -15.37,-22.29z"/>
   <path class="fil14" d="M10629.65 3471.64c-1.74,-3.44 -3.5,-5.38 -5.93,-8.28 -12.16,-14.53 -11.6,-12.93 -24.12,-16.27 -24.99,-6.67 -8.19,-2.01 -22.34,-9.34 -12.47,-6.44 -10.68,-4.13 -26.75,-4.13l-8.2 -16.39 -25.79 0 0 -36.86c-16.46,0 -21.26,-2.68 -33.92,4.25 -0.04,0.02 -7.46,21.75 -52.51,-0.65l-55.96 -26.69c-6.56,-2.15 -7.79,-1.01 -14.18,-2.49 -19.84,-4.56 -7.61,-7.48 -38.81,-7.2l-8.2 -16.39c-41.76,0 -44.74,-20.23 -77.98,-27.61 -58.05,-12.9 -39.01,-21.43 -81.78,-21.84l-0.01 -86.95c20.49,0 40.98,-0.01 61.47,0 15.06,0.01 54.29,6.29 63.73,-7.21l-131.24 1.69 0.05 261.71 -242.93 -1.62 -1.15 -261.66 -486.26 -1.3c0,-52.21 -7.49,-147.16 6.68,-188.17 -6.32,-7.68 -7.86,-6.57 -12.94,-10.72l-15.14 -16.76c-12.83,0 -40.95,-2.04 -51.62,-4.63l-80.49 -33.56c-12.5,-5.16 -18.61,-0.3 -28.83,-7.69 -13.97,-10.09 -2.93,8.4 -8.24,-11.12 -11.02,2.66 9.46,12.02 0.07,-16.39 -39.43,9.48 -2.31,11.06 -28.98,20.93 -12.88,7.52 -47.39,63.01 -72.12,88.26 -28.06,28.65 -46.46,51.25 -76.33,79.3l-167.57 144.6 409.77 0.03 0.05 220.57 -781.85 0c0,-41.68 0.48,-83.55 0.02,-125.2 -0.27,-24.64 -3.45,-35.22 13.58,-49.19 83.24,-68.33 205.32,-178.75 285.23,-255.45l118.04 -123.7c194.95,-221.56 50.59,-409.58 -173.34,-341.32 -82.81,25.23 -108.12,60.84 -156,87l-31.87 -76.75 -15.39 38.75c4.09,26.27 -4.87,2.93 -4.87,37.89 -46.17,0 -14.12,5.95 -48.21,-4.49 -13.45,-4.12 -24.4,-2.22 -37.46,-10.95 -17.25,-11.52 18.06,12 -6.61,-5.45 -15.94,-11.27 -12.87,-4.89 -25.71,-8.61 -18.86,-5.46 4.62,1.57 -12.32,-7.14l-59.32 -12.82c-3.06,-9.61 -0.44,-10.33 -8.2,-20.19 -59.95,0 -49.38,-24.57 -91.02,-24.57 -0.23,-9.34 -0.24,-5.76 -2.47,-13.02l-4.44 -11.64c-1.49,-5.5 -0.98,-7.68 -2.25,-13.25 -2.15,-9.47 0.79,-6.36 -4.54,-12.06 -12.28,11.18 -18.51,37.43 -24.84,54.39 -124.2,332.51 -96.78,690.07 52.31,1005.67 298.43,631.7 1092.08,908.59 1733.1,587.03 168.33,-84.46 283.21,-180.92 390.02,-293.72 79.39,-83.84 207.95,-279.64 236.92,-380.65z"/>
   <path class="fil19" d="M4612.55 7139.89l-237.16 70.56c-36.57,11.18 -56.28,7.27 -54.12,48.41 28.26,25.4 127.44,39.67 171.29,50.6 98.39,17.63 461.05,111.93 572.19,142.29 189.87,51.86 376.48,99.97 562.05,154.69 184.76,54.45 365.59,110.8 545.1,171.85 189.69,64.51 349.46,146.56 542.5,173.97 235.39,33.43 418.75,-3.09 619.86,-76.49 175.22,-63.94 351.59,-124.89 527.31,-189.49 175.18,-64.41 349.58,-126.63 524.79,-192.06 87.17,-32.54 171.77,-64.67 258.55,-97.73l258.72 -102.01c23.43,-13.97 85.06,-31.8 93.06,-54.56 13.51,-38.41 -38.51,-78.27 -56.87,-91.44 -46.95,-33.68 -136.92,-78.37 -201.85,-95.53 -54.41,36.27 -76.75,71.62 -171.77,105.01 -87.12,30.6 -141.23,32.23 -238.43,36.79 -173.23,8.12 -354.12,13.49 -529.77,15.09 -359.23,3.3 -720.74,10.72 -1081.35,10.26l-1642.49 -1.01c-123.33,0.02 -269.99,15.09 -376.26,-31.2 -46.28,-20.14 -68.6,-40.67 -85.35,-48z"/>
   <path class="fil20" d="M6492.3 9964.55c-6.34,-69.74 -0.46,-371.58 -1.31,-490.95 0,-1.24 0.41,-15.83 0.47,-16.07 2.29,-9.99 -2.06,-4.88 6.22,-9.68 21.2,-12.25 214.87,-11.08 249.31,-7.45 109.09,11.51 202.23,56.39 240.1,152.38 15.06,38.15 18.89,71.71 17.13,114.83 -10.74,263.15 -290.62,282.88 -511.94,256.94zm-901.63 -528.96c389.81,-58.56 441.08,483.12 96.05,536.33 -175.62,27.09 -307.96,-68.97 -328.54,-220.73 -23.5,-173.25 85,-293.46 232.48,-315.6zm411.45 12.25c99.38,-13.77 270.98,-25.23 345.07,26.97 36.59,25.78 66.7,76.16 53.67,141.97 -13.32,67.27 -60.55,81.19 -90.67,102.98 18.95,17.02 31.9,20.01 46.57,44.47 23.73,39.55 52.53,153.04 66.56,202.4l-128.64 -0.79c-7.17,-23.31 -16.28,-44.67 -23.64,-70.83 -6.6,-23.44 -12.76,-52.34 -20.31,-73.86 -21.1,-60.08 -57.98,-59.38 -127.85,-59.38l-0.1 204.81 -123.96 0.01c0.04,-64.01 -5.49,-495.17 3.3,-518.74zm1535.74 3.07c30.84,-14.49 146.1,-13.96 186.44,-13.82 59.05,0.18 116.08,8.23 160.26,36.35 37.78,24.04 68.23,77.3 55.72,142.77 -13.76,71.93 -71.5,87.25 -91.43,103.56 10.83,10.25 13.25,7.7 24.93,18.48 46.27,42.63 68.79,157.73 89.12,228.34l-128.59 -0.26c-6.6,-22.08 -16.62,-45.7 -23.76,-70.76 -32.15,-112.94 -22.63,-133.8 -148.56,-133.8l-0.09 203.53c-23.33,2.86 -103.59,4.28 -124.01,-1.24l-0.03 -513.14zm-450.61 -9.56l354.51 -0.09 -1.06 101.41 -229.4 0.07 0.02 104.31 216.91 0.78 0.12 100.53 -217.1 0.09c0.24,28.04 -3.85,93.27 2.6,116.71l240.12 0 0.02 101.42c-59.57,0.03 -331.09,7.25 -366.67,-2.58l-0.02 -31.23 -0.06 -491.41zm-2129.9 475c31.65,-14.53 75.42,-28.1 108.93,-40.63 18.2,-6.8 36.21,-13.82 53.9,-20.01 21.24,-7.45 43.26,-4.28 50.43,17.61 6.49,19.83 -29.02,230.29 -31.57,273.46 33.61,6.8 56.53,19.89 99.01,23.24 62.23,4.89 303.98,1.35 376.8,1.35l2002.94 0.01c157.16,-0.05 331.8,22.91 439.8,-60.9 118.05,-91.6 119.76,-174.44 146.07,-353.62 24.23,-165.07 59.06,-281.63 -41.76,-405.06 -108.19,-132.42 -236.27,-114.31 -384.35,-114.34l-1503.24 0c-334.48,0.16 -669.1,0.75 -1003.6,-0.05 -152,-0.37 -256.2,90.48 -298.04,200.67 -27.26,71.76 -20.37,147.63 -20.36,228.46 0,78.1 -5.42,175.47 5.06,249.82z"/>
   <path class="fil21" d="M4226.65 5924.56c-12.67,90.96 -16.39,190.23 0.66,280.66 14.55,43 18.77,74.34 45.26,109.65 20.18,26.91 47.91,53.89 88.21,67.35 53.14,17.74 217.85,23.96 283.68,28.5 426.53,28.22 857.77,55.72 1290.04,57.8 437.96,2.12 878.25,4.16 1311.05,-29.38l248.75 -17.31 376.02 -42.14c227.28,-28.32 496.13,-73.07 716.44,-126.78 82.44,-20.09 169.5,-32.25 228.78,-86.69l52.13 -55.87c5.84,-16.57 17.8,-31.9 25.16,-51.14 8.6,-22.48 13.5,-40.95 16.58,-64.42 6.72,-51.2 -3.75,-98.9 -9.38,-147.85 -20.55,4.19 -40.87,13.89 -63.67,19.98 -64.68,17.27 -127.69,29.53 -193.93,39.71 -104.63,16.09 -189.07,20.86 -281.55,33.89 -89.38,12.6 -219.62,14.44 -291.76,23.65 -22.93,2.92 -51.52,3.41 -71.64,6.17 -15.35,2.1 -24.96,0.09 -39.82,0.87 -43.11,2.31 -134.96,13.38 -180.03,12.59 -45.24,-0.8 -186.91,13.27 -225.34,12.11l-1359.87 57.04c-27.41,1.37 -51.09,-0.23 -77.87,-0.38 -52.61,-0.3 -98.08,6.61 -151.55,5.53 -150.39,-3.06 -310.07,7.6 -466.95,3.74l-151.49 -4.18c-46.86,0.12 -113.78,3.43 -157.57,-2.19 -25.22,-3.24 -49.2,-2.34 -75.99,-1.83 -29.13,0.55 -46.4,-4.72 -73.61,-4.94 -174.23,-1.37 -632.61,-38.32 -784.57,-116.06 -13.79,-7.06 -11.94,-9.1 -26.18,-8.06z"/>
   <path class="fil22" d="M15922.7 8034.15c-16.57,21.18 -485.25,210.78 -506.1,219.35l-520.61 206.14c2.01,2.13 -0.13,0.31 6.13,5.35 88.33,71.2 118.56,141.65 180.98,244.72 55.8,92.11 110,181.9 165.32,273.03 54.81,90.29 110.32,181.57 165.63,272.72 19.89,32.77 155.6,261.12 167.25,270.95 5.52,-16.44 119.71,-111.13 136.53,-128.02 106.47,-106.94 203.96,-189.18 312.85,-309.76l258.42 -279.49c6.66,-13.1 18.26,-24.56 28.61,-35.52 41.51,-43.98 116.49,-140.29 157.64,-190.56 21.7,-26.5 41.6,-52.58 61.41,-77.91 88.81,-113.6 150.45,-201.42 234.83,-318.02 108.76,-150.28 332.36,-509.1 421.77,-688.41 10.88,-21.82 40.57,-67.98 44.19,-91.09 6.02,-38.43 -37.45,-107.24 -114.07,-44.17 -13.91,11.45 -25.24,19.38 -39.53,30.14 -259.78,195.56 -665.96,417.45 -968.69,555.05 -36.24,16.47 -164.06,82.9 -192.56,85.49z"/>
   <path class="fil2" d="M9978.59 10191.28l-8.7 331.3c-0.94,107.51 0.32,229.87 -6.55,335.9 15.29,-4.12 26.21,-8.7 41.83,-14.66 53.66,-20.48 127.91,-40.77 186.5,-59.57l331.74 -94.58c14.86,-3.8 32.13,-7.97 49.21,-12.25 13.95,-3.48 33.32,-7.46 48.76,-12.38 5.98,-1.91 -1.39,0.39 8.83,-3.17l233.12 -58.14c5.17,-1.44 15.94,-4.97 22.08,-6.59l75.53 -18.83c15.85,-3.96 31.21,-7.85 50.81,-11.16l440.72 -107.62c10.41,-2.6 37.74,-7 44.24,-14.74 16.8,0 1.94,-2.62 10.17,6.94 9.91,-5.91 112.67,-149.43 128.86,-171 42.91,-57.18 86.49,-115.02 131.42,-167.65 13.23,-15.48 22.39,-24.87 34.22,-39.36 43.73,-53.58 132.47,-147.05 191.39,-181.36 32.1,-18.69 66.34,-34.63 102.15,-49.41 92.93,-38.38 244.32,-80.42 349.07,-97.45 39.03,-6.35 29.47,-3.76 63.25,-88.3 28.66,-71.71 55.66,-143.95 81.33,-217.75 23.6,-67.89 60.78,-156.33 76.75,-224.87l-713.65 218.93c-236.86,72.06 -474.63,145.3 -711.05,218.8 -266.17,82.73 -423.56,141.64 -674.06,255.78 -52.65,23.99 -103.07,53.63 -155.58,77.73 -57.65,26.46 -380.73,213.45 -429.55,259.49l-2.86 -53.99z"/>
   <path class="fil23" d="M4492.56 7309.45c-73.51,8.98 -144.61,-5.07 -192.71,42.66 -49.66,49.27 -56.97,93.97 -32.2,175.81 26.4,87.28 77.35,199.75 149.89,255.72l35.53 28.24c13.54,1.62 34.76,15.26 55.03,20.38l193.35 40.13c637.28,126.77 1387.21,160.95 2031.6,147.65 605.45,-12.49 1351.18,-76.38 1940.51,-242.79 48.95,-13.82 127.24,-34.87 165.17,-68.36 18.4,-16.23 22.72,-29.6 35.54,-45.2 33.26,-81.03 154.7,-254.18 46.47,-352.71l-17.11 -16.5 -258.72 102.01c-86.77,33.06 -171.37,65.19 -258.55,97.73 -175.21,65.43 -349.61,127.65 -524.79,192.06 -175.72,64.6 -352.09,125.55 -527.31,189.49 -201.11,73.4 -384.48,109.92 -619.86,76.49 -193.04,-27.41 -352.81,-109.47 -542.5,-173.97 -179.51,-61.05 -360.34,-117.4 -545.1,-171.85 -185.58,-54.71 -372.19,-102.83 -562.05,-154.69 -111.14,-30.36 -473.8,-124.66 -572.19,-142.29z"/>
   <path class="fil11" d="M12665.32 9214.56c-15.97,68.55 -53.15,156.98 -76.75,224.87 -25.66,73.8 -52.67,146.04 -81.33,217.75 -33.79,84.54 -24.22,81.95 -63.25,88.3 -104.74,17.03 -256.14,59.07 -349.07,97.45 -35.82,14.78 -70.06,30.72 -102.15,49.41 -58.93,34.32 -147.66,127.79 -191.39,181.36 -11.83,14.5 -21,23.88 -34.22,39.36 -44.93,52.63 -88.51,110.46 -131.42,167.65 -16.2,21.57 -118.95,165.09 -128.86,171 -1.76,22.83 -80.9,110.82 -92.59,140.28 -5.56,13.98 13,37.99 21.2,47.57 18.43,32.75 39.08,59.15 63.14,85.81 12.85,14.25 21.56,24.98 35.94,37.86 9.62,8.62 31.23,23.67 39.05,33.7 82.67,35.18 31.12,53.8 220.74,-79.06l210.8 -145.63c17.94,-11.83 409.3,-280.9 417.25,-292.49 27.67,-14.45 59.62,-38.04 85.59,-56.75 66.19,-47.71 241.51,-157.28 281.06,-202.02 6.48,-7.32 9.86,-13.5 16.23,-20.83 6.02,-6.9 10.04,-10.09 15.57,-17.05l683.74 -795.27c8.14,-9.87 10.39,-7.5 11.43,-16.73 -22.1,-6.49 -100.09,-9.72 -132.89,-15.01 -70.77,-11.39 -162.3,-42.06 -223.66,-75.12 -45.2,-24.35 -75.13,-49.5 -109.78,-78.51 -59.09,-49.49 -24.02,-24.27 -64.56,-66.71 -92.61,-96.95 -126.3,-264.15 -137.82,-286.19 -8.64,12.31 -77.7,246.58 -89.47,283.43 -15.11,47.31 -29.86,94.59 -45.64,142.67 -11.5,35.06 -32.71,112.62 -46.89,138.87z"/>
   <path class="fil24" d="M14137.74 9087.37c-23.12,18.87 -398.38,70.16 -453.74,75.88 -57.5,5.95 -111.35,3.38 -167.97,7.87 -1.04,9.22 -3.29,6.86 -11.43,16.73l-683.74 795.27c-5.53,6.95 -9.55,10.15 -15.57,17.05 -6.38,7.32 -9.75,13.5 -16.23,20.83 -39.55,44.74 -214.87,154.31 -281.06,202.02 -25.97,18.72 -57.92,42.31 -85.59,56.75 8.45,11.57 -13.47,9.33 16.34,9.33 5.16,-6.93 15.99,-5.69 36.07,-10.63l162.42 -42.57c12.68,-3.45 28.52,-8.11 41.54,-11.81l83.27 -22.89c15.22,-3.74 25.53,-6.64 38.98,-10.4 14.42,-4.01 25.49,-8.54 40.93,-11.91 5.37,-1.17 4.65,-0.79 10.36,-2.39l31.15 -9.26c9.54,-1.98 14.56,-2.82 20.63,-4.57l144.3 -39.98c13.95,-4.1 27.98,-9.78 40.1,-12.71l159.52 -46.13c43.42,-16.43 154.79,-42.63 217.44,-65.07 7.83,-2.81 15.43,-6.07 20.63,-7.75l668.39 -241.47 164.33 -73.13c154.1,-65.36 304.56,-144.66 452,-224.32 13.72,-7.42 21.44,-12.89 34,-19.07l68.99 -39.73c-10.89,-18.34 -55.82,-65.05 -81.45,-97.83 -80.03,-102.3 -150.84,-232.23 -150.89,-374.74 -35.92,22.73 -61.5,40.13 -108.04,59.16 -78.65,32.15 -338.55,112.24 -395.68,107.48z"/>
   <path class="fil14" d="M7900.54 2226.4l-12.04 22.85c-44.41,104.49 -79.42,204.8 -105.32,324.99 -23.83,110.62 -44.16,278.42 -34.71,395.46 0.02,100.14 17.6,188.4 32.41,284.07 11.94,39.93 19.6,82.77 31.18,123.45 12.15,42.72 29.02,82.09 40.02,121.93l141.15 288.17 61.54 88.71c21.95,31.6 42.71,56.09 65.82,85.78 36.74,47.18 102.87,115.96 145.81,157.22l81.54 70.13c89.33,68.66 162.39,127.39 272.1,182.39 140.74,70.55 273.48,124.3 446.94,159.31 202.55,40.87 357.48,35.27 564.36,15.65 57.37,-14.24 122.04,-23.31 181.08,-37.58 30.46,-7.37 158.07,-52.45 170.47,-50.49 21.52,-16.12 53.63,-24.11 78.94,-35.55 127.15,-57.45 234.79,-126.71 344.54,-208.84 22.93,-17.15 39.23,-31.8 60.21,-50.29 38.68,-34.06 77.67,-66.79 112.44,-104.79l150.55 -181.32c38.07,-51.13 140.84,-210.95 160.34,-281.36 -2.89,1.13 -3.51,4.92 -12.46,0.83l-0.4 -21.37c1.3,-16.25 0.64,-11.38 4.48,-23.45 -14.83,8.68 -23.76,2.26 -35.77,-5.29 -22.74,-14.32 -20.1,-6.94 -34.07,-15.13l-4.67 -3.56c-6.68,-3.96 3.73,-0.64 -7.92,-3.98l-57.04 -9.15 0 -16.26c-17.03,0 -41.46,1.69 -47.81,-8.61 -5.95,-9.63 -3.03,2.87 1.26,-7.13 0.01,-0.02 18.91,-8.47 -10.81,-5.83 -5.92,7.91 -45.42,105.49 -54.19,125.43 -29.21,66.38 -90.1,163.03 -134.32,221.95 -37.85,50.42 -79.86,99.08 -123.68,142.41 -17.23,17.04 -27.08,24.97 -45.45,44.53l-96.05 80.08c-63.54,49.82 -138.44,93.96 -220.59,136 -358.7,183.61 -798.61,182.89 -1167.31,19.11 -154.67,-68.71 -213.4,-121.54 -327.68,-208.89 -11.66,-8.9 -12.77,-11.59 -23.18,-21.74 -7.94,-7.74 -15.49,-13.3 -24.24,-20.99 -51.68,-45.42 -82.63,-84.44 -127.39,-138.89 -26.98,-32.81 -49.02,-64.17 -74.13,-102.07 -248.43,-374.82 -299.09,-850.3 -126.61,-1274.63 14.75,-36.28 46.57,-93.91 55.01,-123.97 -11.4,1.74 -32.03,-4.89 -43.89,-8.73 -2.4,-0.78 -0.37,-1.28 -9.35,-2.5 -5.35,-0.73 -15.77,-0.15 -21.52,-0.15l0 -16.39 -65.53 -8.2 0 -16.39 -65.54 -8.19 0 -16.39 -32.77 0c-4.8,-15.9 6.04,-3.35 -15.03,-8.26 -29.28,-6.85 -8.61,0.88 -17.57,-8.29 -12.37,-6.42 -0.45,6.86 -4.68,-6.46 -1.89,-5.94 1.92,-6.36 -0.77,-14.72 -5.7,-17.73 -0.74,-3.15 1.25,-19.76 -8,6.58 -9.87,7.87 -18.98,5.12z"/>
   <path class="fil25" d="M4453.08 7811.86c-35.85,20.93 -75.86,61.64 -99.88,93.41 -19.27,25.46 -63.79,92.53 -63.65,128.33 2.47,16.87 3.41,13.57 15.37,22.29 67.87,49.57 120.75,67.89 210.46,84.39 172.66,31.75 774.55,36.21 968.38,40.62 756.27,17.15 1849.47,-0.83 2594.51,-85.59 262.82,-29.9 594.85,-77.72 841.16,-166.31 39.84,-14.34 81.5,-31.77 117.37,-50.56 61.75,-32.33 66.68,-44.57 105.29,-68.08 -6,-15.51 -34.42,-49.9 -43.49,-58.85 -14.7,-14.52 -37.62,-30.91 -58.26,-44.17 -44.48,-28.56 -104.27,-43.5 -166.08,-43.65 -12.82,15.6 -17.14,28.97 -35.54,45.2 -37.93,33.49 -116.22,54.53 -165.17,68.36 -589.32,166.4 -1335.06,230.3 -1940.51,242.79 -644.39,13.3 -1394.32,-20.87 -2031.6,-147.65l-193.35 -40.13c-20.27,-5.12 -41.49,-18.76 -55.03,-20.38z"/>
   <path class="fil2" d="M7993.23 3787.31l-141.15 -288.17c-21.29,7.46 -775.14,-21.2 -873.41,-23.71 -595,-15.14 -1181.23,-26.02 -1777.53,-26.02 -157.69,0 -501.02,-21.44 -627.33,47.88 -137.29,75.36 -55.27,173.82 113.2,203.9 84.44,15.09 547.25,18.89 653.39,21.97 294.08,8.53 590.86,16.03 884.73,20.85 509.27,8.38 1032.47,24.35 1544.19,37.16 70.73,1.77 154.67,-0.42 223.91,6.13z"/>
   <path class="fil26" d="M14361.51 8473.79l-107.35 16.34c0.7,29.75 -10.83,73.76 -20.35,103.71l-2.92 9.14c-2.41,10.5 -0.79,9.91 -4.15,20.64 -10.36,33.27 -4.31,24.09 -9.32,55.81 -3.87,24.48 -9.28,14.54 -11.83,33.32 -2.37,17.41 2.36,24.49 -3.27,42.12l-5.28 18.94c-1.09,5.76 -0.2,3.88 -2,10.53l-10.39 38.88c-0.3,0.99 -0.83,1.94 -1.13,2.93l-15.25 62.61c-14.06,44.25 -12.88,83.47 -22.99,104.25 -13.95,28.68 2.01,22.03 -10.87,62.57l-6 26.95c-0.16,-0.56 -0.65,2.24 -1.13,2.44l10.46 2.4c57.13,4.75 317.03,-75.33 395.68,-107.48 46.54,-19.02 72.12,-36.42 108.04,-59.16 0.05,142.51 70.86,272.45 150.89,374.74 25.64,32.78 70.56,79.49 81.45,97.83l12.95 8.16c39.36,36.32 67.64,73.4 115.44,110.16l83.31 68.14c58.02,42.68 113.1,83.88 175.48,123.61 16.71,10.65 49.1,28.75 62.7,39.96 26.96,16.3 52.31,30.85 79.57,47.15 14.54,8.7 24.21,14.2 38.87,22.82 23.01,13.49 23.8,2.69 41.73,-6.02 7.27,-15.05 50.52,-48.04 73.12,-78.16 10.69,-14.26 20.26,-27.67 30.89,-42.86 11.68,-16.67 17.72,-33.74 28.11,-50.39 11.57,-37.1 12.48,-26.56 -5.44,-56.74 -9.04,-15.25 -25.19,-36.67 -29.24,-52.72 -11.65,-9.83 -147.36,-238.18 -167.25,-270.95 -55.31,-91.15 -110.82,-182.43 -165.63,-272.72 -55.32,-91.14 -109.52,-180.93 -165.32,-273.03 -62.42,-103.07 -92.65,-173.52 -180.98,-244.72 -6.26,-5.04 -4.12,-3.23 -6.13,-5.35 -47.59,-17.31 -59.55,-31.4 -122.42,-33.57 -48.71,-1.68 -95.22,7.25 -140.77,14.03 -43.64,6.5 -244.75,40.11 -271.3,33.69z"/>
   <path class="fil2" d="M7780.89 3253.76c-14.81,-95.66 -32.39,-183.93 -32.41,-284.07 -66.74,1.75 -140.34,-4.06 -208.6,-5.99l-626.61 -18.27c-281.86,-5.97 -566.12,-9.13 -847.87,-17.66 -390.5,-11.83 -879.06,-10.65 -1277.99,-3.53 -296.29,5.28 -377.54,171.09 -154.2,236.53 64.47,18.89 123.49,21.03 195.2,22.17 138.01,2.19 281.48,5.76 418.53,10.1 282.96,8.97 565.15,13.61 847.14,19.66 561.47,12.04 1124.99,24.13 1686.82,41.05z"/>
   <path class="fil27" d="M15021.13 7583.72c-5.2,15.87 -25.7,41.8 -36.25,57.69 -96.31,145.09 -184.9,261.16 -284.68,399.46l-302.08 377.94c-15.47,18.08 -30.46,36.72 -46.16,51.71l9.54 3.27c26.55,6.42 227.65,-27.19 271.3,-33.69 45.55,-6.78 92.06,-15.71 140.77,-14.03 62.86,2.16 74.83,16.25 122.42,33.57l520.61 -206.14c20.84,-8.58 489.52,-198.18 506.1,-219.35 -8.85,3.14 -4.69,10.26 -15.88,-25.21 -62.98,-199.66 -81.67,-408.4 -25.04,-611.1 -14.21,7.42 -82,78.41 -156.54,123.8 -218.16,132.85 -459.77,95.63 -704.11,62.08z"/>
   <path class="fil24" d="M9963.34 10858.48c-4.44,70.48 -2.67,149.34 -4.41,221.23 -2,82.48 -10.68,124.93 -25.96,200.62 18.89,-8.66 264.51,15.68 305.92,18.1 258.04,15.11 544.1,18.91 803.18,9.42 49.97,-1.83 112.7,-8.22 161.07,-6.05 -35.71,-101.17 -58.93,-136.41 -93.17,-260.68 -13.13,-47.66 -23.7,-91.74 -34.99,-141.11 -12.49,-54.55 -13.23,-107.64 31.32,-126.16 4.75,-8.3 7.04,-8.89 17.61,-13.89 85.26,-40.38 134.69,-25.58 211.11,-16.11 24.03,-20.2 29.97,-33.23 49.01,-51.33 18.55,-17.63 30.6,-39.61 51.45,-52.95 -8.2,-9.58 -26.76,-33.59 -21.2,-47.57 11.69,-29.46 90.83,-117.46 92.59,-140.28 -8.24,-9.55 6.63,-6.94 -10.17,-6.94 -6.5,7.74 -33.83,12.14 -44.24,14.74l-440.72 107.62c-19.59,3.31 -34.95,7.2 -50.81,11.16l-75.53 18.83c-6.14,1.62 -16.91,5.15 -22.08,6.59l-233.12 58.14c-10.23,3.56 -2.86,1.26 -8.83,3.17 -15.44,4.92 -34.81,8.9 -48.76,12.38 -17.08,4.28 -34.35,8.45 -49.21,12.25l-331.74 94.58c-58.59,18.8 -132.84,39.09 -186.5,59.57 -15.62,5.96 -26.54,10.54 -41.83,14.66z"/>
   <path class="fil28" d="M153.37 7528.17l812.49 0.44 0.07 -1449.7c-18.67,19.22 -40.33,56.02 -58.05,80.85l-178.83 247c-83.61,109.14 -162.24,212.91 -247.23,318.18 -147.93,183.2 -332.51,470.83 -328.45,803.24z"/>
   <path class="fil29" d="M13798.76 8536.12c-42.74,13.07 -79.25,46.48 -205.63,76.91 -358.79,86.38 -686.72,-53.85 -728.52,-55.31 -2.39,15.49 -7.34,28.08 -12.56,43.42 -8.39,24.73 -3.51,22.6 -4.72,48.44 11.52,22.04 45.21,189.24 137.82,286.19 40.54,42.44 5.47,17.22 64.56,66.71 34.65,29.01 64.58,54.16 109.78,78.51 61.36,33.06 152.89,63.73 223.66,75.12 32.8,5.29 110.8,8.52 132.89,15.01 56.62,-4.49 110.46,-1.92 167.97,-7.87 55.36,-5.72 430.62,-57.01 453.74,-75.88l-10.46 -2.4c0.48,-0.2 0.97,-3 1.13,-2.44l6 -26.95c12.88,-40.54 -3.07,-33.89 10.87,-62.57 10.1,-20.78 8.93,-60 22.99,-104.25l15.25 -62.61c0.3,-0.99 0.83,-1.94 1.13,-2.93l10.39 -38.88c1.8,-6.65 0.91,-4.77 2,-10.53l5.28 -18.94c5.64,-17.64 0.9,-24.72 3.27,-42.12 2.55,-18.78 7.96,-8.84 11.83,-33.32 5.01,-31.72 -1.04,-22.53 9.32,-55.81 3.36,-10.74 1.74,-10.14 4.15,-20.64l2.92 -9.14c9.52,-29.95 21.05,-73.96 20.35,-103.71l-455.39 45.99z"/>
   <path class="fil30" d="M4957.34 9916.34c-91.5,32.01 -182.84,67.06 -273.7,101.14l-254.25 93.84c-40.59,23.34 15.29,56.36 43.5,78.59 88.21,69.5 88.01,46.75 -19.24,179.01 -15.46,19.06 -71.66,94.99 -89.99,108.11 -3.63,13.8 -208.96,265.63 -239.68,303.63 -11.26,13.94 -31.56,29.64 -19.75,52.15 5.48,10.46 251.8,204.68 301.1,243.89 16.43,13.06 26.42,27.47 55.92,27.02 49.06,-58.08 91.51,-113.59 138,-171.36 48.76,-60.6 92.55,-114.94 140.26,-175.08 46.73,-58.88 93.67,-117.86 140.13,-175.32 39.08,-48.32 32.63,-41.03 132.4,39.65 14.33,11.58 30.98,30.08 53.94,20.38 14.88,-16.41 21.74,-101.2 22.28,-128.49l50.77 -366.72c2.55,-43.17 38.06,-253.63 31.57,-273.46 -7.16,-21.89 -29.18,-25.06 -50.43,-17.61 -17.68,6.19 -35.7,13.21 -53.9,20.01 -33.51,12.52 -77.28,26.09 -108.93,40.63z"/>
   <path class="fil20" d="M15963.87 6610.95l776.61 -0.28c44.38,5.76 860.67,1.25 928.88,1.25 152.76,0 311,4.07 463.05,0.07 49.99,-1.32 73.93,-40.45 103.88,-68.98 20.32,-19.37 77.44,-61.05 26.99,-116.37 -21.09,-23.14 -63.67,-24.87 -99.04,-18.52 -36.8,-12.66 -632.23,-3.8 -724.26,-3.8 -604.83,0 -1209.68,0 -1814.52,0 -118.8,0 -243.78,-3.64 -361.83,0.48 -47.44,6.19 -78.14,6.37 -88,51.37 -9.65,44.09 21.2,68.31 39.87,93.6 16.95,22.96 36.27,57.75 73.98,61.67 37.63,3.92 95.46,0.5 135.26,0.5 88.24,0 487.69,4.55 539.12,-1z"/>
   <path class="fil31" d="M8194.91 2355.68c-8.43,30.07 -40.26,87.69 -55.01,123.97 -172.47,424.33 -121.82,899.81 126.61,1274.63 25.1,37.89 47.14,69.26 74.13,102.07 44.76,54.45 75.71,93.47 127.39,138.89 8.75,7.68 16.3,13.24 24.24,20.99 10.41,10.14 11.52,12.84 23.18,21.74 114.28,87.35 173.02,140.18 327.68,208.89 368.7,163.78 808.61,164.51 1167.31,-19.11 82.14,-42.04 157.05,-86.18 220.59,-136l96.05 -80.08c18.37,-19.55 28.22,-27.49 45.45,-44.53 43.82,-43.33 85.83,-91.99 123.68,-142.41 44.21,-58.92 105.1,-155.57 134.32,-221.95 8.78,-19.93 48.27,-117.51 54.19,-125.43 7.05,-25.65 60.54,-138.42 1.64,-127.17 -19.67,3.77 -24.52,38.92 -31.77,59.56 -6.54,18.58 -17.75,49.7 -24.93,61.9 -28.98,101.01 -157.53,296.81 -236.92,380.65 -106.8,112.8 -221.69,209.26 -390.02,293.72 -641.02,321.56 -1434.67,44.68 -1733.1,-587.03 -149.09,-315.6 -176.51,-673.16 -52.31,-1005.67 6.33,-16.96 12.56,-43.22 24.84,-54.39 1.1,-29.83 66.09,-142.99 82.48,-170.23 224.21,-372.66 657.83,-639.7 1120.19,-629.82 -12.5,30.87 -63.03,91.2 -73.61,122.39l420.19 -100.98c-11.85,-12.15 -355.47,-229.69 -365.38,-232.14l34.26 146.31c-36.57,3.82 -86.9,-0.71 -126.38,0.95 -231.54,9.63 -473.28,84.36 -660.57,206.54 -99.23,64.73 -133.28,93.72 -211.75,165 -82.02,74.53 -163.97,178.96 -222.32,273.4 -12.44,20.11 -32.01,61.31 -44.32,75.35z"/>
   <path class="fil32" d="M13798.76 8536.12l455.39 -45.99 107.35 -16.34 -9.54 -3.27c15.69,-14.99 30.68,-33.62 46.16,-51.71l302.08 -377.94c99.77,-138.29 188.37,-254.36 284.68,-399.46 10.55,-15.89 31.05,-41.82 36.25,-57.69 -32.81,-9.97 -85.8,-16.36 -122.72,-24.77 -41.08,-9.35 -80.27,-19.73 -120.02,-31.36 -66.01,-19.28 -211.74,-81.27 -218.89,-82.8l-475.39 684.42c-30.96,46.88 -63.63,88.37 -94.43,134.91l-190.92 271.99z"/>
   <path class="fil14" d="M4676.39 6638.93c69.73,-0.44 138.54,3.76 209.35,1.79 69,-1.92 136.81,-4.86 204.84,-8.86 168.26,-9.91 479.71,-38.47 642.86,-102.72 43.48,-17.13 30.96,-19.32 69.94,3.43 81.01,47.27 175.13,121.78 285.5,141.29 124.63,22.03 250.85,-29.48 394.66,-2.15 113.39,21.54 220.98,64.64 330.85,95.44 155.18,43.51 395.81,80.68 435.91,-130.37 11.95,-62.98 -0.88,-133.14 -4.76,-197.63 -432.8,33.54 -873.1,31.5 -1311.05,29.38 -432.26,-2.08 -863.5,-29.58 -1290.04,-57.8 15.65,7.9 10.2,-2.44 13.08,13.42l0.65 149.89c0.02,10.81 0.5,22.6 0.24,33.24 -0.35,13.63 2.09,14.19 -4.33,22.14l22.3 9.5z"/>
   <path class="fil33" d="M9904.07 2987.75l-245.6 -0.1 64.8 -112.26c64.05,-107.11 71.13,-120.14 126.42,-229.89l49.17 -106.42c7.87,-14.17 0.48,-7.29 11.66,-13 0.21,74.12 -6.04,151.44 -6.25,226.27 -0.22,78.46 0.1,156.94 -0.21,235.41zm-480.55 10.51c-14.16,41.01 -6.68,135.96 -6.68,188.17l486.26 1.3 1.15 261.66 242.93 1.62 -0.05 -261.71 131.24 -1.69 -2.25 -200.08 -128.55 -0.02 -0.48 -639.02c-33.74,-9.32 -273.08,-2.68 -327.4,-2.6 -8.92,23.71 -394.11,650.95 -396.17,652.37z"/>
   <path class="fil31" d="M8564.94 2566.46l31.87 76.75c47.88,-26.16 73.2,-61.77 156,-87 223.93,-68.26 368.29,119.75 173.34,341.32l-118.04 123.7c-79.9,76.71 -201.98,187.12 -285.23,255.45 -17.03,13.98 -13.84,24.55 -13.58,49.19 0.46,41.65 -0.02,83.52 -0.02,125.2l781.85 0 -0.05 -220.57 -409.77 -0.03 167.57 -144.6c29.87,-28.05 48.26,-50.64 76.33,-79.3 24.73,-25.26 59.24,-80.74 72.12,-88.26 2.94,-15.96 23.15,-46.45 32.27,-65.63 36.01,-75.64 47.6,-157.73 33.9,-242.29 -39.18,-241.8 -265.87,-311.81 -478.18,-275.86 -92.94,15.75 -212.65,67.05 -263.03,118.94 1.27,19.9 33.2,88.19 42.65,112.99z"/>
   <polygon class="fil2" points="1239.9,4661.33 2212.44,4662.87 2205.95,4201.69 1231.89,4200.21 "/>
   <polygon class="fil2" points="1253.82,5487.06 2224.65,5486.94 2218.09,5031.06 1246.01,5029.71 "/>
   <polygon class="fil2" points="1259.39,5851.02 1267.54,6306.89 2237.19,6305.75 2230.19,5850.9 "/>
   <path class="fil2" d="M1281.27 7123.19l966.68 -1.45 -5.56 -451.44c-29.13,-6.88 -638.14,-2.16 -723.55,-2.16 -74.38,0 -172.18,-4.68 -243.98,2.05l6.41 453z"/>
   <path class="fil14" d="M7494.28 6421.84c65.68,94.73 472.37,139.13 631.42,151.7 198.25,15.68 546.81,42.99 727.52,-24.33 113.98,-48.81 290.97,-146.37 365.97,-233.35 88.92,-103.1 -140.21,-161.65 -221.45,-183.87 -24.56,-6.72 -121.92,-17.58 -130.08,-21.64l-52.13 55.87c-59.29,54.44 -146.35,66.59 -228.78,86.69 -220.31,53.71 -489.15,98.46 -716.44,126.78l-376.02 42.14z"/>
   <path class="fil34" d="M14042.25 6329.17c-11.94,28.77 -112.26,229.45 -124.52,241.78 -17.19,65.34 -111.56,117.51 37.73,210.78 82.75,51.69 188.91,55.73 281.17,29.84 81.11,-22.77 59.88,-68.42 76.57,-150.98l26.2 -178.98c35.93,-7.73 70.64,-2.97 111.68,-13.71 31.63,-8.26 58.31,-21.71 76.31,-41.6 42.49,-46.98 26.34,-133.41 21.42,-200.96 -5.74,-78.79 -19.29,-132.27 -40.93,-201.32l-61.73 -175.61c-133.55,54.16 -139.34,57.63 -282.3,99.44 -57.74,16.87 -97.76,21.33 -82.51,97.48 16.68,83.36 64.97,107.79 16.2,129.69 -7.16,-7.51 -21.18,-44.46 -27.87,-56.22 -56.75,-99.75 -127.29,-41.83 -117.35,19.03 14.42,88.32 102.72,127.58 109.24,140.33 1,1.94 8.05,31.18 8.02,34.01 -0.18,11.79 9.51,12.86 -27.35,17z"/>
   <path class="fil2" d="M3174.87 4662.51c-0.62,-65.41 1.5,-132.42 3.49,-197.91 1.55,-50.97 8.53,-154.23 1.47,-199.57l-2.26 -64.84 -3.96 0.03 -850.11 0.01 6.33 461.1 845.03 1.19z"/>
   <polygon class="fil2" points="3158.63,5487.03 3166.72,5029.65 2334.87,5029.75 2341.67,5487.12 "/>
   <path class="fil2" d="M3144.95 6259.74c1.99,-57.93 0.14,-117.29 2.68,-175.12 1.56,-35.53 6.81,-150.36 -0.03,-178.54l-2.87 -57.22 -796.95 1.37 5.77 455.74 784.63 -1.13c-0.36,-17.4 -3.79,-31.68 6.76,-45.09z"/>
   <polygon class="fil2" points="3130.98,7121.1 3138.07,6667.16 2359.5,6666.91 2365.44,7122.23 "/>
   <path class="fil11" d="M14272.4 5595.18c-26.46,16.84 -107.83,25.95 -143.74,34.88 -104.77,26.06 -227.84,76.98 -268.42,182.26 -6.97,18.15 -8.05,60.81 -17.18,72.31 -15.59,15.88 -22.56,-19.5 -73.82,8.79 -85.18,57.78 -20.85,167.82 27.8,231.72 14.23,18.7 48.92,43.48 55.42,55.69 -5.14,16.2 -80.27,57.74 32.57,110.37 54.55,25.45 87.78,37.2 157.23,37.98 36.86,-4.15 27.17,-5.21 27.35,-17 0.04,-2.84 -7.02,-32.07 -8.02,-34.01 -6.52,-12.75 -94.82,-52.01 -109.24,-140.33 -9.94,-60.86 60.61,-118.78 117.35,-19.03 6.69,11.76 20.7,48.71 27.87,56.22 48.77,-21.9 0.47,-46.33 -16.2,-129.69 -15.25,-76.15 24.77,-80.61 82.51,-97.48 142.96,-41.81 148.76,-45.28 282.3,-99.44 61.53,-37.7 127.12,-66.63 129.7,-171.34 1.98,-80.45 -53.02,-181.76 -115.26,-184.32l-13.55 24.22c-27.44,-4.13 -19.43,-34.52 -44.42,-2.08 -29.28,37.99 -78.54,67.77 -130.25,80.27z"/>
   <path class="fil35" d="M5909.43 1710.61c-98.25,18.79 -103.63,149.46 -16.34,181.89 28.93,10.76 444.62,27.12 501.56,30.75 45.83,2.91 783.46,46.68 812.24,41.02 53.24,-10.45 88.7,-65.13 68.38,-131 -19.43,-63.01 -68.68,-65.48 -140.82,-71.74 -131.11,-11.36 -263.05,-20.49 -395.28,-30.34 -135.49,-10.09 -270.48,-14.53 -404.94,-20.53 -70.41,-3.15 -372.65,-10.02 -424.8,-0.06z"/>
   <path class="fil36" d="M13665.75 5775.8l-21.18 -22.6c-23.15,-25.9 -41.06,-36.93 -55.4,-67.61 -28.76,-61.6 -6.51,-109.82 28.98,-156.13 88.08,-114.91 236.84,-208.04 374.58,-248.7 71.04,-20.97 131.82,-6.76 167.99,58.86 13.26,24.07 20.07,52.27 26.35,62.94 5.4,-15.33 8.9,-15.36 21.46,-24.34 123.47,-88.29 59.39,-122.24 37.91,-165.44 -19.24,-38.72 -17.23,-81.56 -34.99,-120.75 -72.32,-159.59 -333.03,-75.39 -432.77,12.07 -27.37,24 -40.2,53.37 -61.28,94.31 -50.83,98.67 -142.75,96.04 -197.51,117.89 -125.22,49.96 -92.59,148.52 -95.26,209.07 -2.52,57.3 -49.52,199.74 7.62,268.2 66.11,79.23 191.41,-9.89 233.49,-17.79z"/>
   <path class="fil32" d="M12926.56 8057.21l66.3 37.64c42.12,-93.94 137.19,-386.89 172.87,-498.96 22.41,-70.35 136.7,-446.01 150.36,-520.07 -97.1,16.94 -214.12,76.19 -276.03,120.19 -185.8,131.99 -243.15,330.04 -207,560.41 12.1,77.1 36.37,159.04 64.57,230.67 8.01,20.3 24.16,50.43 28.93,70.12z"/>
   <path class="fil37" d="M13665.75 5775.8c3.1,6.08 45.34,51.58 53.07,58.85 10.6,9.95 17.36,19.23 26.98,30.46 7.35,8.58 19.77,16.87 23.42,28.3 51.26,-28.28 58.23,7.1 73.82,-8.79 9.13,-11.51 10.21,-54.16 17.18,-72.31 40.58,-105.27 163.65,-156.19 268.42,-182.26 35.91,-8.93 117.28,-18.04 143.74,-34.88 -12.95,-9.94 -35.51,-76.67 -44.35,-97.83 -7.64,-18.24 -32.49,-83.97 -40.97,-94.79 -6.28,-10.67 -13.08,-38.87 -26.35,-62.94 -36.17,-65.63 -96.94,-79.83 -167.99,-58.86 -137.74,40.65 -286.5,133.78 -374.58,248.7 -35.49,46.31 -57.74,94.52 -28.98,156.13 14.34,30.68 32.25,41.71 55.4,67.61l21.18 22.6z"/>
   <path class="fil27" d="M15317.45 7116.05c457.64,51.2 619.07,-377.67 661.37,-409.89l-12.68 -82.95 -0.74 -11.12 -368.62 0.04c-14.5,12.49 -59.06,105.21 -71.64,127.77 -22.53,40.41 -46.48,85.47 -67.35,125.24 -23.09,43.97 -47.09,83.2 -70.68,125.92 -17.64,31.94 -59.38,95.08 -69.66,125z"/>
   <path class="fil27" d="M16370.66 4910.23c22.34,2.54 138.4,-17.55 174.35,-20.96 116.22,-11.03 261.77,-9.41 377.56,3.54 29.61,3.32 153.03,26.49 167.76,23.72 17.59,-83.45 60.65,-199.63 -44.45,-246.18 -71.13,-31.52 -221.58,-42.49 -306.33,-40.85 -94.69,1.82 -212.82,19.08 -298.65,44.16 -128.55,37.56 -80.03,166.13 -70.25,236.57z"/>
   <path class="fil38" d="M6619.72 9874.32l-3.36 -80.83c0,-53.71 -3.69,-227.44 1.97,-257.02 136.19,-14.95 256.25,20.13 253.94,162.84 -2.23,136.85 -113.22,191.53 -252.56,175.01zm-127.42 90.23c221.32,25.94 501.2,6.2 511.94,-256.94 1.76,-43.12 -2.08,-76.68 -17.13,-114.83 -37.87,-95.99 -131.01,-140.87 -240.1,-152.38 -34.44,-3.63 -228.11,-4.8 -249.31,7.45 -8.28,4.8 -3.94,-0.31 -6.22,9.68 -0.07,0.25 -0.47,14.83 -0.47,16.07 0.84,119.37 -5.03,421.21 1.31,490.95z"/>
   <path class="fil38" d="M5600.3 9535.01c204.06,-55.96 253.35,297.28 70.77,339.57 -204.32,47.31 -252.41,-289.76 -70.77,-339.57zm-9.63 -99.42c-147.48,22.14 -255.98,142.35 -232.48,315.6 20.58,151.76 152.91,247.82 328.54,220.73 345.03,-53.22 293.75,-594.89 -96.05,-536.33z"/>
   <path class="fil39" d="M15736.41 9740.9c9.33,17.31 32.02,20.26 37.12,56.94 4.27,30.67 -11.18,53.67 -25.03,69.53 -21.8,24.94 -69,72.68 -122.47,45.67 -1.85,49.59 24.53,110.82 45.84,145.17 13.19,21.26 27.96,41.33 42.86,55.55 9.99,9.52 42.54,36.09 59.72,38.37 4.07,-9.79 34.12,-24.48 44.04,-31.02 61.26,-40.49 160.08,-136.06 204.74,-191.34 19.38,-23.99 47.88,-54.87 62.72,-81.68 0.36,-0.65 1.03,-1.88 1.39,-2.5 0.49,-0.86 2.5,-4.16 3.26,-5.28 -8.18,-1.57 -14.97,-1.91 -16.33,-1.76l0.02 -297.33c-12.37,3.63 1.78,-0.26 1.96,-0.48 3.7,-4.92 3.08,10.24 4.41,-9.4 1.01,-14.92 0.09,-11.04 -10.97,-16.51 -51.7,14.98 -142.53,71.11 -182.59,98.05 -60.02,40.35 -107,82.03 -150.73,128.02z"/>
   <path class="fil38" d="M6123.8 9532.38c70.23,-8.61 160.38,-7.67 155.3,72.67 -4.5,71.34 -87.43,68.62 -156.26,68.62l0.96 -141.3zm-121.69 -84.54c-8.79,23.58 -3.26,454.73 -3.3,518.74l123.96 -0.01 0.1 -204.81c69.87,0 106.74,-0.7 127.85,59.38 7.55,21.52 13.71,50.42 20.31,73.86 7.36,26.17 16.47,47.52 23.64,70.83l128.64 0.79c-14.03,-49.35 -42.84,-162.84 -66.56,-202.4 -14.67,-24.46 -27.62,-27.45 -46.57,-44.47 30.12,-21.79 77.35,-35.71 90.67,-102.98 13.03,-65.82 -17.08,-116.19 -53.67,-141.97 -74.1,-52.2 -245.69,-40.74 -345.07,-26.97z"/>
   <path class="fil38" d="M7663.15 9532.38c67.61,-8.1 156.53,-9.31 155.36,68.57 -1.15,75.35 -87.62,72.73 -156.57,72.73l1.21 -141.3zm-125.3 -81.47l0.03 513.14c20.42,5.52 100.68,4.1 124.01,1.24l0.09 -203.53c125.93,0 116.4,20.86 148.56,133.8 7.13,25.06 17.15,48.68 23.76,70.76l128.59 0.26c-20.32,-70.61 -42.85,-185.71 -89.12,-228.34 -11.68,-10.78 -14.11,-8.24 -24.93,-18.48 19.93,-16.31 77.67,-31.63 91.43,-103.56 12.5,-65.47 -17.94,-118.73 -55.72,-142.77 -44.18,-28.12 -101.21,-36.17 -160.26,-36.35 -40.34,-0.13 -155.6,-0.66 -186.44,13.82z"/>
   <path class="fil40" d="M16438.24 4560.72c-41,17.2 -62.9,13.16 -101.22,42.08 -27,20.37 -50.78,45.51 -68.39,79.04 -46.66,88.91 -17.2,156.26 -4.88,249.72 30.92,-5.45 78.57,-21.87 106.9,-21.34 -9.78,-70.45 -58.3,-199.01 70.25,-236.57 85.83,-25.09 203.96,-42.34 298.65,-44.16 84.74,-1.64 235.2,9.34 306.33,40.85 105.1,46.56 62.04,162.73 44.45,246.18 7.05,1.37 22.05,3.86 29.14,5.34 8.22,1.72 18.92,4.09 27.02,6.28 14.91,4.05 36.62,13.6 51.01,7.51 21.02,-85.98 44.19,-182.4 1.37,-262.88 -37.49,-70.48 -91.09,-104.23 -188.59,-126.47 -223.28,-50.9 -362.96,-21.78 -572.02,14.41z"/>
   <path class="fil38" d="M7087.3 9932.76l0.02 31.23c35.58,9.83 307.09,2.61 366.67,2.58l-0.02 -101.42 -240.12 0c-6.45,-23.43 -2.36,-88.67 -2.6,-116.71l217.1 -0.09 -0.12 -100.53 -216.91 -0.78 -0.02 -104.31 229.4 -0.07 1.06 -101.41 -354.51 0.09 0.06 491.41z"/>
   <path class="fil41" d="M11203.14 11301.8c13.62,24.05 26.78,56.18 39.89,81.14 43.48,82.81 92.6,152.13 153.03,219.25 68.8,76.4 84.58,-55.59 95.04,-106.51 15.92,-77.57 21.56,-141.76 28.34,-219.57 1.06,-115.11 -5.83,-275.24 -54.07,-371.92 -55.23,18.43 -51.49,22.6 -101.63,-8.9 0.92,15.03 -15.01,6.83 8.55,18.03l-0.19 522.71c-0.09,28.27 4.44,46.18 3.73,68.91 -61.58,-88.95 -122.93,-207.23 -173.97,-330.06 -67.32,-162.04 -87.36,-237.12 -95.55,-401.01 -44.54,18.52 -43.8,71.6 -31.32,126.16 11.29,49.36 21.86,93.45 34.99,141.11 34.24,124.27 57.46,159.51 93.17,260.68z"/>
   <path class="fil39" d="M11106.3 10773.85c8.19,163.89 28.23,238.97 95.55,401.01 51.04,122.84 112.39,241.12 173.97,330.06 0.71,-22.73 -3.81,-40.64 -3.73,-68.91l0.19 -522.71c-23.56,-11.2 -7.63,-3 -8.55,-18.03 -6.63,-12.07 -16.01,-16.46 -25.83,-29.64 -8.37,-11.2 -15.77,-23.85 -20.9,-36.52 -17.1,-42.23 3.32,-62.72 18.01,-85.27 -76.42,-9.47 -125.85,-24.27 -211.11,16.11 -10.57,5 -12.86,5.59 -17.61,13.89z"/>
   <path class="fil15" d="M4391.52 6573.36c18.58,4.07 40.26,16.6 60.87,24.19 21.48,7.91 43.71,14.6 66.05,19.96 51.3,12.3 103.48,19.28 157.95,21.41l-22.3 -9.5c6.41,-7.95 3.98,-8.51 4.33,-22.14 0.27,-10.65 -0.22,-22.44 -0.24,-33.24l-0.65 -149.89c-2.88,-15.86 2.57,-5.52 -13.08,-13.42 -65.82,-4.54 -230.54,-10.76 -283.68,-28.5 -40.29,-13.46 -68.03,-40.45 -88.21,-67.35 -26.49,-35.3 -30.7,-66.65 -45.26,-109.65 -4.29,4.27 0.06,1.38 -7.57,5.66l-26.6 10.47c-13.52,5.07 -24.14,9.51 -37.59,15.6 -188.73,85.48 -13.61,181.48 101.61,257.04l134.36 79.36z"/>
   <path class="fil41" d="M16069.73 9514.83c11.05,5.46 11.97,1.58 10.97,16.51 -1.33,19.64 -0.71,4.48 -4.41,9.4 -0.18,0.23 -14.34,4.12 -1.96,0.48l-0.02 297.33c1.36,-0.15 8.15,0.18 16.33,1.76 -0.77,1.13 -2.77,4.42 -3.26,5.28 -0.35,0.62 -1.02,1.84 -1.39,2.5 -14.84,26.81 -43.34,57.68 -62.72,81.68 -44.66,55.27 -143.48,150.84 -204.74,191.34 -9.92,6.55 -39.97,21.23 -44.04,31.02 55.13,58.59 205.07,-112.3 246.74,-155.38 118.53,-122.59 289.09,-342 330.96,-516.43 19.59,-81.62 -88.77,-38.29 -130.42,-24.67 -29.29,9.57 -136.71,43.31 -152.03,59.17z"/>
   <path class="fil34" d="M12811.04 8114.85c4.56,43.23 -13.22,65.85 10.74,157.4 19.24,73.57 42.17,94.98 52.03,125.34 37.63,32.87 22.5,75.89 124.25,17.87 294.8,-168.11 41.84,-269.05 -5.21,-320.6l-66.3 -37.64c-16.86,9.55 -28.69,21.63 -52.48,33.5 -20.15,10.06 -40.14,18.25 -63.04,24.14z"/>
   <path class="fil20" d="M5600.3 9535.01c-181.64,49.81 -133.56,386.88 70.77,339.57 182.58,-42.29 133.29,-395.53 -70.77,-339.57z"/>
   <path class="fil34" d="M15966.14 6623.21l12.68 82.95 11.49 37.25 196.21 -20.4c69.84,-11.64 96.35,-4.07 160.62,5.17 40.33,5.81 124.82,19.93 166.16,12.27 61.19,-11.36 184.58,-97.36 227.18,-129.78l-776.61 0.28 2.28 12.26z"/>
   <path class="fil20" d="M6619.72 9874.32c139.34,16.52 250.33,-38.16 252.56,-175.01 2.31,-142.71 -117.75,-177.8 -253.94,-162.84 -5.66,29.58 -1.97,203.31 -1.97,257.02l3.36 80.83z"/>
   <path class="fil42" d="M9904.07 2987.75c0.31,-78.46 -0.01,-156.94 0.21,-235.41 0.21,-74.83 6.46,-152.15 6.25,-226.27 -11.18,5.71 -3.8,-1.18 -11.66,13l-49.17 106.42c-55.29,109.75 -62.37,122.79 -126.42,229.89l-64.8 112.26 245.6 0.1z"/>
   <path class="fil43" d="M6353.1 4751.32c28.27,-152.76 -181,-207.94 -241.76,-15.92 -60.3,190.62 213.31,169.64 241.76,15.92z"/>
   <path class="fil34" d="M15483.85 9807.28c15.14,6.79 51.92,37.07 69.29,50.33 24.9,19.04 48.33,36.21 72.9,55.43 53.46,27.01 100.66,-20.73 122.47,-45.67 13.85,-15.86 29.3,-38.86 25.03,-69.53 -5.1,-36.68 -27.8,-39.63 -37.12,-56.94 -18.68,-5.78 -68.98,-55.84 -90.88,-74.06 -12.35,-10.28 -22.16,-17.99 -29.55,-30.97 -10.39,16.65 -16.43,33.72 -28.11,50.39 -10.64,15.2 -20.2,28.61 -30.89,42.86 -22.6,30.12 -65.85,63.11 -73.12,78.16z"/>
   <path class="fil34" d="M11335.02 10743.85c-14.69,22.55 -35.1,43.05 -18.01,85.27 5.13,12.67 12.53,25.31 20.9,36.52 9.82,13.18 19.19,17.57 25.83,29.64 50.14,31.5 46.4,27.33 101.63,8.9 13.73,-20.99 34.28,-36.7 51.89,-53.81 19.45,-18.89 38.23,-34.92 56.36,-53.42 -7.82,-10.03 -29.43,-25.08 -39.05,-33.7 -14.38,-12.88 -23.09,-23.61 -35.94,-37.86 -24.06,-26.66 -44.71,-53.05 -63.14,-85.81 -20.85,13.34 -32.9,35.32 -51.45,52.95 -19.04,18.1 -24.98,31.13 -49.01,51.33z"/>
   <path class="fil20" d="M7663.15 9532.38l-1.21 141.3c68.96,0 155.43,2.62 156.57,-72.73 1.17,-77.87 -87.75,-76.67 -155.36,-68.57z"/>
   <path class="fil20" d="M6122.84 9673.68c68.83,0 151.76,2.71 156.26,-68.62 5.08,-80.34 -85.08,-81.28 -155.3,-72.67l-0.96 141.3z"/>
  </g>
 </g>
</svg>
