<?xml version="1.0" encoding="UTF-8"?>
<!DOCTYPE svg PUBLIC "-//W3C//DTD SVG 1.1//EN" "http://www.w3.org/Graphics/SVG/1.1/DTD/svg11.dtd">
<!-- Creator: CorelDRAW -->
<svg xmlns="http://www.w3.org/2000/svg" xml:space="preserve" width="105.325mm" height="105.241mm" version="1.1" style="shape-rendering:geometricPrecision; text-rendering:geometricPrecision; image-rendering:optimizeQuality; fill-rule:evenodd; clip-rule:evenodd"
viewBox="0 0 10585.26 10576.76"
 xmlns:xlink="http://www.w3.org/1999/xlink"
 xmlns:xodm="http://www.corel.com/coreldraw/odm/2003">
 <defs>
  <style type="text/css">
   <![CDATA[
    .fil2 {fill:#F6C80B}
    .fil1 {fill:#FB8B0A}
    .fil0 {fill:#FF3401}
   ]]>
  </style>
 </defs>
 <g id="Capa_x0020_1">
  <metadata id="CorelCorpID_0Corel-Layer"/>
  <path class="fil0" d="M-0 3148.35l8.51 1029.6c26.08,-17.47 65.49,-72.27 86.42,-100.77 108.24,-147.34 205.55,-305.02 310.02,-455.79l162.5 -220.41c220.17,-269.63 396.25,-472.76 752.44,-592 285.95,-95.73 521.8,-102.96 817.12,-135.9l560.36 -18.26c62.39,0 124.79,-0.01 187.19,0l757.33 -8.48c74.18,0.28 112.97,-8.83 187.15,-8.56 318.94,1.19 627.18,-17.18 944.52,-16.98 74.57,0.04 121.52,-8.7 187.06,-8.76 70.46,-0.08 106.59,9.06 178.8,8.78 64.99,-0.24 131.21,-1.17 196.08,-0.36 43.89,0.54 46.86,6.84 84.71,8.88 30.05,1.63 63.56,-0.74 93.98,-0.37 56.35,0.67 124.08,14.08 178.6,17.11 121.65,6.74 231.92,26.01 341.59,41.32 458.95,64.08 856.03,223.85 1200.36,526.97 15.87,13.97 32.49,30.96 46.97,46.63 20.28,21.94 24.4,33.08 46.65,55.46l127.58 153.21c131.55,159.42 232.94,352.4 314.04,553.89 186.85,464.26 211.49,997.32 211.49,1575.41 0,537.67 -34.04,1051.96 -34.04,1591.2 0,504.98 24.43,1107.64 -43.87,1589.87 -14.88,105.08 -45.83,236.33 -76.26,332.17 -49.08,154.57 -111.81,286.12 -188.82,423.84 -187.92,336.04 -388.09,531.84 -717.72,711.8 -46.8,25.55 -84.71,49.92 -130.6,73.61 -44.4,22.92 -82.79,49.73 -130.46,73.77 -46.09,23.25 -218.78,130.26 -243.89,164.54 125.47,0 226.88,8.84 357.58,8.31 60.52,-0.25 97.78,8.31 163.51,8.7l11.21 0c709.89,-1.55 1326.61,11.83 1963.31,-261.32 353.58,-151.69 624.68,-381 897.39,-651.25 64.01,-63.43 128.71,-137.89 179.17,-212.25 28.25,-41.63 52.96,-70.78 81.64,-114.08 156.37,-236.03 216.43,-371.34 322.42,-639.1 19.67,-49.7 33.03,-98.27 47.56,-148.16 97.05,-333.39 145.66,-652.31 145.66,-1020.08l0 -3922.68c0,-572.34 -60.29,-1139.29 -176.87,-1593 -29.75,-115.74 -64.86,-230.29 -106.41,-336.07 -22.85,-58.19 -38.91,-101.99 -63.14,-158.09l-150.78 -291.68c-150.17,-249.68 -348.67,-461.88 -580.93,-635.87l-203.1 -128.75c-230.22,-136.17 -521.14,-240.33 -796.68,-309.5 -181.62,-45.59 -374.53,-79.7 -561.42,-102.29 -265.29,-32.08 -547.09,-52.58 -840.87,-52.58l-3914.17 0c-566.39,0 -1076.68,83.64 -1506.34,272.06l-195.35 93.95c-86.39,44.93 -170.91,91.49 -250.47,149.45 -23.2,16.91 -37.6,24.39 -60.9,41.21 -41.04,29.61 -69.77,55.25 -109.36,86.35 -42.82,33.64 -66.97,52.97 -104.69,91.01 -36.44,36.75 -70.5,57 -106.42,97.8 -18.37,20.87 -21.58,30.08 -42.44,51.15 -18.75,18.95 -32.79,31.39 -51.4,50.72 -97.27,101.06 -181.92,219.73 -259.69,335.93 -218.63,326.63 -332.64,568.92 -422.13,956.33 -68.32,295.74 -81.69,593.07 -81.69,922.38z"/>
  <path class="fil1" d="M-0 6330.74l8.51 757.3c25.42,-18.62 24.2,-48.3 47.38,-105.78 116.08,-287.81 232.66,-449.58 509.27,-613.94 373.05,-221.66 999.91,-199.26 1417.45,-199.26 127.84,0 349.11,-12.33 463.09,4.91 104.86,15.88 436.05,4.11 583.58,12.06 498.87,26.89 1007.86,69.77 1219.24,559.14 49.42,114.4 77.98,234.14 103.29,373.22 84.06,461.82 64.38,1320.65 64.39,1816.11 0.01,141.61 -6.85,328.36 -23.15,453.36 -32.92,252.69 -28.78,508.9 -207.65,736.86 -32.56,41.5 -83.81,81.44 -126.6,111.65l-141.26 96.99c-66.62,43.95 -209.75,166.09 -250.13,226.38 38.47,0.85 33.81,8.5 76.58,8.5 637.24,0 1290.59,42.84 1817.34,-369.47 25.08,-19.64 48.37,-36.66 69.67,-57.98 100.37,-100.47 144.8,-133.32 235.32,-266.72 61.4,-90.49 136.2,-238.27 171.93,-338.61 136.4,-383 147.84,-653.21 147.84,-1120.02 0,-676.35 -8.51,-1335.02 -8.51,-2016.64 0,-489.59 -71.67,-1022.57 -361.01,-1408.87 -23.02,-30.73 -31.27,-43.12 -58.11,-69.53 -44.14,-43.43 -49.07,-61.92 -124.18,-122.59 -25.12,-20.29 -45.1,-36.2 -71.67,-55.96 -50.78,-37.78 -102.29,-67.56 -159.35,-95.93 -122.81,-61.07 -222.06,-99.45 -371.41,-139.12 -474.05,-125.96 -1374.79,-107.64 -1917.53,-107.64 -175.18,0 -321.01,-8.5 -493.53,-8.5 -170.18,0 -340.36,0.09 -510.54,-0.01l-485.03 17c-169.93,8.21 -297.67,31.48 -438.96,71.59 -185.86,52.76 -432.15,174.95 -580.23,304.72 -164.36,144.05 -296.56,289.01 -396.14,488.8 -15.76,31.63 -27.3,53.19 -42.68,84.94 -118.82,245.11 -167.2,637 -167.2,973.02z"/>
  <path class="fil2" d="M8.51 8789.86l95.3 -57.86c35.48,-21.51 66.59,-38.32 101.95,-59.72 38.15,-23.1 175.31,-105.89 210.02,-113.33 347.78,-74.64 1085.6,-81.43 1388.25,69.12 193.9,96.44 231.27,378.95 256.73,585.66 29.03,235.76 25.17,554.14 -26.91,767.57 -7.18,29.41 -11.58,49.41 -19.29,82.82 -5.81,25.15 -16.1,50.03 -24.52,77.6 -8.24,26.95 -12.91,51.46 -24.52,77.59 -69.09,155.62 -57.99,133.93 -145.07,280.38 -13.21,22.22 -27.48,46.79 -42.06,68.56 678.25,0 1088.15,-90.86 1155.82,-750.21l18.44 -619.75c0,-299.31 6.96,-590.25 -40.03,-878.95 -60,-368.52 -217.15,-565.58 -571.82,-636.47 -360.24,-72.01 -912.63,-50.25 -1302.7,-50.25 -383.31,0 -689.67,63.72 -855.8,301.43 -69.53,99.49 -108.17,219.39 -134.64,341.86 -33.8,156.39 -39.14,327.44 -39.14,513.94z"/>
 </g>
</svg>
